<?xml version="1.0" encoding="UTF-8" standalone="no"?>
<svg
   version="1.1"
   id="vertical"
   x="0px"
   y="0px"
   viewBox="0 0 240 40"
   sodipodi:docname="3do.svg"
   inkscape:version="1.4-beta (62f545ba5e, 2024-04-22)"
   width="240"
   height="40"
   xmlns:inkscape="http://www.inkscape.org/namespaces/inkscape"
   xmlns:sodipodi="http://sodipodi.sourceforge.net/DTD/sodipodi-0.dtd"
   xmlns="http://www.w3.org/2000/svg"
   xmlns:svg="http://www.w3.org/2000/svg">
  <defs
     id="defs2" />
  <sodipodi:namedview
     id="namedview2"
     pagecolor="#ffffff"
     bordercolor="#000000"
     borderopacity="0.25"
     inkscape:showpageshadow="2"
     inkscape:pageopacity="0.0"
     inkscape:pagecheckerboard="true"
     inkscape:deskcolor="#d1d1d1"
     inkscape:zoom="8.96"
     inkscape:cx="28.683036"
     inkscape:cy="20.033482"
     inkscape:window-width="1920"
     inkscape:window-height="1009"
     inkscape:window-x="-8"
     inkscape:window-y="-8"
     inkscape:window-maximized="1"
     inkscape:current-layer="vertical"
     showgrid="false" />
  <path
     d="m 10.08,28.4 q 0.976,0 1.504,-0.384 0.512,-0.368 0.512,-1.152 v -0.528 q 0,-0.784 -0.512,-1.152 Q 11.056,24.8 10.08,24.8 H 0 l 4,-4 h 6.624 q 5.568,0 5.568,4.544 v 2.24 L 13.376,30.4 h 2.816 v 5.056 Q 16.192,40 10.624,40 H 0 l 4,-4 h 6.08 q 0.976,0 1.504,-0.384 0.512,-0.368 0.512,-1.12 V 32.4 H 0 l 4,-4 z M 18.192017,40 V 20.8 h 10.176 q 1.424,0.032 2.512,0.416 1.104,0.384 1.904,1.184 1.6,1.552 1.6,4.384 v 7.168 q 0,2.864 -1.6,4.416 -1.584,1.584 -4.416,1.632 z m 4.096,-15.2 v 14.016 l 2.816,-2.816 h 2.848 q 0.576,0 1.008,-0.16 0.432,-0.16 0.72,-0.448 0.288,-0.288 0.448,-0.704 0.16,-0.416 0.16,-0.992 v -6.56 q 0,-1.12 -0.608,-1.728 -0.56,-0.608 -1.728,-0.608 z m 14.096016,1.984 q 0.032,-1.424 0.416,-2.512 0.384,-1.104 1.184,-1.872 0.8,-0.8 1.872,-1.2 1.088,-0.4 2.544,-0.4 h 6.208 q 2.816,0 4.416,1.6 1.552,1.552 1.6,4.384 v 7.232 q -0.048,2.816 -1.6,4.416 -0.8,0.768 -1.904,1.168 -1.088,0.4 -2.512,0.4 h -6.208 q -1.456,0 -2.544,-0.4 -1.072,-0.4 -1.872,-1.168 -0.8,-0.8 -1.184,-1.888 -0.384,-1.104 -0.416,-2.528 z m 4.096,0.32 v 6.624 q 0,1.12 0.576,1.696 0.576,0.576 1.728,0.576 h 5.44 q 1.152,0 1.728,-0.576 0.576,-0.576 0.576,-1.696 v -6.624 q 0,-1.152 -0.576,-1.728 -0.576,-0.576 -1.728,-0.576 h -5.44 q -1.152,0 -1.728,0.576 -0.576,0.576 -0.576,1.728 z"
     id="text1"
     style="font-size:32px;line-height:0.1;font-family:Gayatri;-inkscape-font-specification:Gayatri;fill:#ffffff"
     aria-label="3D0" />
</svg>
