<?xml version="1.0" encoding="UTF-8" standalone="no"?>
<svg
   version="1.1"
   id="vertical"
   x="0px"
   y="0px"
   viewBox="0 0 240 40"
   sodipodi:docname="amiga500.svg"
   inkscape:version="1.4-beta (62f545ba5e, 2024-04-22)"
   width="240"
   height="40"
   xmlns:inkscape="http://www.inkscape.org/namespaces/inkscape"
   xmlns:sodipodi="http://sodipodi.sourceforge.net/DTD/sodipodi-0.dtd"
   xmlns="http://www.w3.org/2000/svg"
   xmlns:svg="http://www.w3.org/2000/svg">
  <defs
     id="defs2" />
  <sodipodi:namedview
     id="namedview2"
     pagecolor="#ffffff"
     bordercolor="#000000"
     borderopacity="0.25"
     inkscape:showpageshadow="2"
     inkscape:pageopacity="0.0"
     inkscape:pagecheckerboard="true"
     inkscape:deskcolor="#d1d1d1"
     inkscape:zoom="8.96"
     inkscape:cx="100.11161"
     inkscape:cy="20.033482"
     inkscape:window-width="1920"
     inkscape:window-height="1009"
     inkscape:window-x="-8"
     inkscape:window-y="-8"
     inkscape:window-maximized="1"
     inkscape:current-layer="vertical"
     showgrid="false" />
  <path
     d="m 6.016,0.00266667 h 10.176 l -4,3.99999993 H 6.4 q -1.168,0 -1.728,0.608 -0.576,0.576 -0.576,1.728 v 6.5599994 q 0,1.12 0.576,1.696 0.288,0.288 0.72,0.448 0.432,0.16 1.008,0.16 h 9.792 v 4 H 6.016 q -1.456,-0.032 -2.544,-0.432 -1.072,-0.4 -1.872,-1.2 -0.8,-0.768 -1.184,-1.856 -0.384,-1.104 -0.416,-2.56 V 5.9866666 q 0.032,-1.424 0.416,-2.512 0.384,-1.104 1.184,-1.872 0.8,-0.79999993 1.872,-1.18399993 1.088,-0.384 2.544,-0.416 z M 18.192017,5.9866666 q 0,-1.424 0.4,-2.512 0.4,-1.104 1.168,-1.872 0.8,-0.79999993 1.888,-1.18399993 1.104,-0.384 2.528,-0.416 h 6.272 q 1.424,0.032 2.512,0.416 1.104,0.384 1.872,1.18399993 1.6,1.552 1.6,4.384 v 7.1679994 q 0,2.864 -1.6,4.416 -1.536,1.584 -4.384,1.632 h -6.272 q -2.832,-0.048 -4.416,-1.632 -1.568,-1.568 -1.568,-4.416 z m 4.096,0.32 V 18.018666 l 2.816,-2.816 h 4.96 q 0.56,0 0.976,-0.16 0.432,-0.16 0.72,-0.448 0.576,-0.576 0.576,-1.696 V 6.3066666 q 0,-1.152 -0.576,-1.728 -0.576,-0.576 -1.696,-0.576 h -5.504 q -1.12,0 -1.696,0.576 -0.576,0.576 -0.576,1.728 z m 32.49599,-6.30399993 h 6.72 V 19.202666 h -4.096 V 4.7066666 l -5.248,14.4959994 h -4.352 l -5.28,-14.4959994 V 19.202666 h -4.096 V 0.00266667 h 6.72 l 4.832,13.21599933 z m 25.072021,0 h 6.72 V 19.202666 h -4.096 V 4.7066666 l -5.248,14.4959994 h -4.352 l -5.28,-14.4959994 V 19.202666 h -4.096 V 0.00266667 h 6.72 l 4.832,13.21599933 z M 88.57605,5.9866666 q 0,-1.424 0.4,-2.512 0.4,-1.104 1.168,-1.872 0.8,-0.79999993 1.888,-1.18399993 1.104,-0.384 2.528,-0.416 h 6.272 q 1.424,0.032 2.512,0.416 1.104,0.384 1.872,1.18399993 1.6,1.552 1.6,4.384 v 7.1679994 q 0,2.864 -1.6,4.416 -1.536,1.584 -4.384,1.632 h -6.272 q -2.832,-0.048 -4.416,-1.632 -1.568,-1.568 -1.568,-4.416 z m 4.096,0.32 V 18.018666 l 2.816,-2.816 h 4.96 q 0.56,0 0.976,-0.16 0.432,-0.16 0.72,-0.448 0.576,-0.576 0.576,-1.696 V 6.3066666 q 0,-1.152 -0.576,-1.728 -0.576,-0.576 -1.696,-0.576 h -5.504 q -1.12,0 -1.696,0.576 -0.576,0.576 -0.576,1.728 z M 108.81604,19.202666 V 0.00266667 h 10.176 q 1.424,0.032 2.512,0.416 1.104,0.384 1.904,1.18399993 1.6,1.552 1.6,4.384 v 7.1679994 q 0,2.864 -1.6,4.416 -1.584,1.584 -4.416,1.632 z m 4.096,-15.1999994 V 18.018666 l 2.816,-2.816 h 2.848 q 0.576,0 1.008,-0.16 0.432,-0.16 0.72,-0.448 0.288,-0.288 0.448,-0.704 0.16,-0.416 0.16,-0.992 V 6.3386666 q 0,-1.12 -0.608,-1.728 -0.56,-0.608 -1.728,-0.608 z m 14.09602,1.984 q 0,-1.424 0.4,-2.512 0.4,-1.104 1.168,-1.872 0.8,-0.79999993 1.888,-1.18399993 1.104,-0.384 2.528,-0.416 h 6.272 q 1.424,0.032 2.512,0.416 1.104,0.384 1.872,1.18399993 1.6,1.552 1.6,4.384 v 7.1679994 q 0,2.864 -1.6,4.416 -1.536,1.584 -4.384,1.632 h -6.272 q -2.832,-0.048 -4.416,-1.632 -1.568,-1.568 -1.568,-4.416 z m 4.096,0.32 V 18.018666 l 2.816,-2.816 h 4.96 q 0.56,0 0.976,-0.16 0.432,-0.16 0.72,-0.448 0.576,-0.576 0.576,-1.696 V 6.3066666 q 0,-1.152 -0.576,-1.728 -0.576,-0.576 -1.696,-0.576 h -5.504 q -1.12,0 -1.696,0.576 -0.576,0.576 -0.576,1.728 z m 26.76799,-6.30399993 q 2.8,0 4.192,1.15199993 1.376,1.136 1.376,3.424 v 2.208 l -2.816,2.816 h 2.816 v 9.5999994 h -4.096 v -7.6 h -8 v 7.6 h -4.096 V 0.00266667 Z m 1.472,6.06399993 v -0.496 q 0,-0.784 -0.512,-1.152 -0.48,-0.384 -1.504,-0.384 v -0.032 h -5.984 v 6.4159994 l 2.816,-2.8159994 h 3.168 q 1.024,0 1.504,-0.384 0.512,-0.368 0.512,-1.152 z m 12.11201,-6.06399993 h 10.176 V 4.0026666 h -9.888 q -1.248,0 -1.728,0.48 -0.272,0.272 -0.384,0.704 -0.096,0.432 -0.096,1.056 v 4.1759994 l 2.816,-2.8159994 h 9.28 v 3.9999994 h -12.096 v 1.36 q 0,0.624 0.096,1.056 0.112,0.432 0.384,0.704 0.48,0.48 1.728,0.48 h 9.888 v 4 h -10.176 q -1.648,0 -2.8,-0.336 -1.136,-0.352 -1.84,-1.072 -0.704,-0.704 -1.04,-1.856 -0.336,-1.168 -0.336,-2.784 V 6.0186666 q 0,-3.264 1.376,-4.64 0.704,-0.70399993 1.84,-1.05599993 1.152,-0.352 2.8,-0.32 z"
     id="text13"
     style="font-size:32px;line-height:0.1;font-family:Gayatri;-inkscape-font-specification:Gayatri;fill:#ffffff"
     aria-label="COMMODORE" />
  <path
     d="m 19.664024,36 h -8.096 l -1.456,4 H 5.7600244 L 12.736024,20.8 h 5.728 l 7.008,19.2 h -4.352 l -1.456,-4 z m -4.88,-4 h 3.424 l -2.592,-7.104 -3.6,9.872 2.768,-2.768 z M 42.064036,20.8 h 6.72 V 40 h -4.096 V 25.504 L 39.440036,40 h -4.352 l -5.28,-14.496 V 40 h -4.096 V 20.8 h 6.72 l 4.832,13.216 4.8,-13.216 z m 8.720022,0 h 4.096 V 40 h -4.096 V 20.8 Z m 12.080008,0 h 10.208 v 4 h -9.792 q -1.168,0 -1.728,0.608 -0.576,0.576 -0.576,1.728 v 6.56 q 0,1.12 0.576,1.696 0.288,0.288 0.72,0.448 0.432,0.16 1.008,0.16 h 5.696 v -3.6 h -5.344 l 4,-4 h 5.44 V 40 h -3.904 -6.304 q -2.848,-0.048 -4.384,-1.632 -0.8,-0.768 -1.184,-1.856 -0.384,-1.104 -0.416,-2.56 v -7.168 q 0.032,-1.424 0.416,-2.512 0.384,-1.104 1.184,-1.872 0.768,-0.8 1.856,-1.184 1.104,-0.384 2.528,-0.416 z M 88.336083,36 h -8.096 l -1.456,4 h -4.352 l 6.976,-19.2 h 5.728 l 7.008,19.2 h -4.352 l -1.456,-4 z m -4.88,-4 h 3.424 l -2.592,-7.104 -3.6,9.872 2.768,-2.768 z M 107.18414,20.8 h 15.68 v 4 h -11.584 v 3.6 h 6.56 q 2.768,0 4.16,1.152 1.376,1.136 1.376,3.424 v 2.48 q 0,4.544 -5.536,4.544 h -10.656 l 4,-4 h 6.08 q 1.008,0 1.536,-0.384 0.512,-0.416 0.512,-1.12 v -0.592 q 0,-0.704 -0.512,-1.12 -0.528,-0.384 -1.536,-0.384 h -10.08 z m 18.19202,5.984 q 0.032,-1.424 0.416,-2.512 0.384,-1.104 1.184,-1.872 0.8,-0.8 1.872,-1.2 1.088,-0.4 2.544,-0.4 h 6.208 q 2.816,0 4.416,1.6 1.552,1.552 1.6,4.384 v 7.232 q -0.048,2.816 -1.6,4.416 -0.8,0.768 -1.904,1.168 -1.088,0.4 -2.512,0.4 h -6.208 q -1.456,0 -2.544,-0.4 -1.072,-0.4 -1.872,-1.168 -0.8,-0.8 -1.184,-1.888 -0.384,-1.104 -0.416,-2.528 z m 4.096,0.32 v 6.624 q 0,1.12 0.576,1.696 0.576,0.576 1.728,0.576 h 5.44 q 1.152,0 1.728,-0.576 0.576,-0.576 0.576,-1.696 v -6.624 q 0,-1.152 -0.576,-1.728 -0.576,-0.576 -1.728,-0.576 h -5.44 q -1.152,0 -1.728,0.576 -0.576,0.576 -0.576,1.728 z m 16.14399,-0.32 q 0.032,-1.424 0.416,-2.512 0.384,-1.104 1.184,-1.872 0.8,-0.8 1.872,-1.2 1.088,-0.4 2.544,-0.4 h 6.208 q 2.816,0 4.416,1.6 1.552,1.552 1.6,4.384 v 7.232 q -0.048,2.816 -1.6,4.416 -0.8,0.768 -1.904,1.168 -1.088,0.4 -2.512,0.4 h -6.208 q -1.456,0 -2.544,-0.4 -1.072,-0.4 -1.872,-1.168 -0.8,-0.8 -1.184,-1.888 -0.384,-1.104 -0.416,-2.528 z m 4.096,0.32 v 6.624 q 0,1.12 0.576,1.696 0.576,0.576 1.728,0.576 h 5.44 q 1.152,0 1.728,-0.576 0.576,-0.576 0.576,-1.696 v -6.624 q 0,-1.152 -0.576,-1.728 -0.576,-0.576 -1.728,-0.576 h -5.44 q -1.152,0 -1.728,0.576 -0.576,0.576 -0.576,1.728 z"
     id="text14"
     style="font-size:32px;line-height:0.1;font-family:Gayatri;-inkscape-font-specification:Gayatri;fill:#ffffff"
     aria-label=" AMIGA  500" />
</svg>
