<?xml version="1.0" encoding="UTF-8" standalone="no"?>
<svg
   version="1.1"
   id="vertical"
   x="0px"
   y="0px"
   viewBox="0 0 240 40"
   sodipodi:docname="arcadia.svg"
   inkscape:version="1.4-beta (62f545ba5e, 2024-04-22)"
   width="240"
   height="40"
   xmlns:inkscape="http://www.inkscape.org/namespaces/inkscape"
   xmlns:sodipodi="http://sodipodi.sourceforge.net/DTD/sodipodi-0.dtd"
   xmlns="http://www.w3.org/2000/svg"
   xmlns:svg="http://www.w3.org/2000/svg">
  <defs
     id="defs2" />
  <sodipodi:namedview
     id="namedview2"
     pagecolor="#ffffff"
     bordercolor="#000000"
     borderopacity="0.25"
     inkscape:showpageshadow="2"
     inkscape:pageopacity="0.0"
     inkscape:pagecheckerboard="true"
     inkscape:deskcolor="#d1d1d1"
     inkscape:zoom="8.96"
     inkscape:cx="96.261161"
     inkscape:cy="20.479911"
     inkscape:window-width="1920"
     inkscape:window-height="1009"
     inkscape:window-x="-8"
     inkscape:window-y="-8"
     inkscape:window-maximized="1"
     inkscape:current-layer="vertical"
     showgrid="false" />
  <path
     d="M 13.904,36 H 5.808 L 4.352,40 H 0 L 6.976,20.8 h 5.728 L 19.712,40 H 15.36 Z m -4.88,-4 h 3.424 l -2.592,-7.104 -3.6,9.872 z M 30.576012,20.8 q 2.8,0 4.192,1.152 1.376,1.136 1.376,3.424 v 2.208 l -2.816,2.816 h 2.816 V 40 h -4.096 v -7.6 h -8 V 40 h -4.096 V 20.8 Z m 1.472,6.064 v -0.496 q 0,-0.784 -0.512,-1.152 -0.48,-0.384 -1.504,-0.384 V 24.8 h -5.984 v 6.416 l 2.816,-2.816 h 3.168 q 1.024,0 1.504,-0.384 0.512,-0.368 0.512,-1.152 z M 44.160028,20.8 h 10.176 l -4,4 h -5.792 q -1.168,0 -1.728,0.608 -0.576,0.576 -0.576,1.728 v 6.56 q 0,1.12 0.576,1.696 0.288,0.288 0.72,0.448 0.432,0.16 1.008,0.16 h 9.792 v 4 h -10.176 q -1.456,-0.032 -2.544,-0.432 -1.072,-0.4 -1.872,-1.2 -0.8,-0.768 -1.184,-1.856 -0.384,-1.104 -0.416,-2.56 v -7.168 q 0.032,-1.424 0.416,-2.512 0.384,-1.104 1.184,-1.872 0.8,-0.8 1.872,-1.184 1.088,-0.384 2.544,-0.416 z M 69.600045,36 h -8.096 l -1.456,4 h -4.352 l 6.976,-19.2 h 5.728 l 7.008,19.2 h -4.352 z m -4.88,-4 h 3.424 l -2.592,-7.104 -3.6,9.872 z m 10.928012,8 V 20.8 h 10.176 q 1.424003,0.032 2.512003,0.416 1.104,0.384 1.904,1.184 1.6,1.552 1.6,4.384 v 7.168 q 0,2.864 -1.6,4.416 -1.584,1.584 -4.416003,1.632 z m 4.096,-15.2 v 14.016 l 2.816,-2.816 h 2.848 q 0.576,0 1.008,-0.16 0.432003,-0.16 0.720003,-0.448 0.288,-0.288 0.448,-0.704 0.16,-0.416 0.16,-0.992 v -6.56 q 0,-1.12 -0.608,-1.728 Q 86.576057,24.8 85.408057,24.8 Z m 14.096013,-4 h 4.096 V 40 h -4.096 z M 113.20008,36 h -8.096 l -1.456,4 h -4.352 l 6.976,-19.2 h 5.728 l 7.008,19.2 h -4.352 z m -4.88,-4 h 3.424 l -2.592,-7.104 -3.6,9.872 z m 29.29606,-3.6 h 4.512 q 0.976,0 1.504,-0.384 0.512,-0.416 0.512,-1.152 v -0.528 q 0,-0.736 -0.512,-1.152 -0.528,-0.384 -1.504,-0.384 h -6.08 l -4,-4 h 10.624 q 5.568,0 5.568,4.544 v 2.448 q 0,2.288 -1.408,3.456 -1.392,1.152 -4.16,1.152 h -4.512 q -0.976,0 -1.504,0.384 -0.24,0.192 -0.384,0.48 -0.128,0.272 -0.128,0.64 V 36 h 11.584 v 4 h -15.68 v -7.024 q 0,-1.152 0.352,-2 0.352,-0.848 1.056,-1.424 1.392,-1.152 4.16,-1.152 z m 12.62402,-1.616 q 0.032,-1.424 0.416,-2.512 0.384,-1.104 1.184,-1.872 0.8,-0.8 1.872,-1.2 1.088,-0.4 2.544,-0.4 h 6.208 q 2.816,0 4.416,1.6 1.552,1.552 1.6,4.384 v 7.232 q -0.048,2.816 -1.6,4.416 -0.8,0.768 -1.904,1.168 -1.088,0.4 -2.512,0.4 h -6.208 q -1.456,0 -2.544,-0.4 -1.072,-0.4 -1.872,-1.168 -0.8,-0.8 -1.184,-1.888 -0.384,-1.104 -0.416,-2.528 z m 4.096,0.32 v 6.624 q 0,1.12 0.576,1.696 0.576,0.576 1.728,0.576 h 5.44 q 1.152,0 1.728,-0.576 0.576,-0.576 0.576,-1.696 v -6.624 q 0,-1.152 -0.576,-1.728 -0.576,-0.576 -1.728,-0.576 h -5.44 q -1.152,0 -1.728,0.576 -0.576,0.576 -0.576,1.728 z m 16.14399,-0.32 q 0.032,-1.424 0.416,-2.512 0.384,-1.104 1.184,-1.872 0.8,-0.8 1.872,-1.2 1.088,-0.4 2.544,-0.4 h 6.208 q 2.816,0 4.416,1.6 1.552,1.552 1.6,4.384 v 7.232 q -0.048,2.816 -1.6,4.416 -0.8,0.768 -1.904,1.168 -1.088,0.4 -2.512,0.4 h -6.208 q -1.456,0 -2.544,-0.4 -1.072,-0.4 -1.872,-1.168 -0.8,-0.8 -1.184,-1.888 -0.384,-1.104 -0.416,-2.528 z m 4.096,0.32 v 6.624 q 0,1.12 0.576,1.696 0.576,0.576 1.728,0.576 h 5.44 q 1.152,0 1.728,-0.576 0.576,-0.576 0.576,-1.696 v -6.624 q 0,-1.152 -0.576,-1.728 -0.576,-0.576 -1.728,-0.576 h -5.44 q -1.152,0 -1.728,0.576 -0.576,0.576 -0.576,1.728 z M 190.72014,20.8 h 4.096 V 40 h -4.096 z"
     id="text17"
     style="font-size:32px;line-height:0.1;font-family:Gayatri;-inkscape-font-specification:Gayatri;fill:#ffffff"
     aria-label="ARCADIA  2001" />
</svg>
