<?xml version="1.0" encoding="UTF-8" standalone="no"?>
<svg
   version="1.1"
   id="vertical"
   x="0px"
   y="0px"
   viewBox="0 0 240 40"
   sodipodi:docname="atarilynx.svg"
   inkscape:version="1.4-beta (62f545ba5e, 2024-04-22)"
   width="240"
   height="40"
   xmlns:inkscape="http://www.inkscape.org/namespaces/inkscape"
   xmlns:sodipodi="http://sodipodi.sourceforge.net/DTD/sodipodi-0.dtd"
   xmlns="http://www.w3.org/2000/svg"
   xmlns:svg="http://www.w3.org/2000/svg">
  <defs
     id="defs2" />
  <sodipodi:namedview
     id="namedview2"
     pagecolor="#ffffff"
     bordercolor="#000000"
     borderopacity="0.25"
     inkscape:showpageshadow="2"
     inkscape:pageopacity="0.0"
     inkscape:pagecheckerboard="true"
     inkscape:deskcolor="#d1d1d1"
     inkscape:zoom="8.96"
     inkscape:cx="131.41741"
     inkscape:cy="20.033482"
     inkscape:window-width="1920"
     inkscape:window-height="1009"
     inkscape:window-x="-8"
     inkscape:window-y="-8"
     inkscape:window-maximized="1"
     inkscape:current-layer="vertical"
     showgrid="false" />
  <path
     d="M 13.904,36 H 5.808 L 4.352,40 H -1.4305115e-8 L 6.976,20.8 h 5.728 L 19.712,40 H 15.36 l -1.456,-4 z m -4.88,-4 h 3.424 L 9.856,24.896 6.256,34.768 9.024,32 Z M 23.952012,20.8 h 12.192 v 4 h -6.048 V 40 h -4.096 V 24.8 h -6.048 l 4,-4 z M 51.408028,36 h -8.096 l -1.456,4 h -4.352 l 6.976,-19.2 h 5.728 l 7.008,19.2 h -4.352 l -1.456,-4 z m -4.88,-4 h 3.424 l -2.592,-7.104 -3.6,9.872 2.768,-2.768 z M 68.08004,20.8 q 2.8,0 4.192,1.152 1.376,1.136 1.376,3.424 v 2.208 l -2.816,2.816 h 2.816 V 40 h -4.096 v -7.6 h -8 V 40 h -4.096 V 20.8 Z m 1.472,6.064 v -0.496 q 0,-0.784 -0.512,-1.152 -0.48,-0.384 -1.504,-0.384 V 24.8 h -5.984 v 6.416 l 2.816,-2.816 h 3.168 q 1.024,0 1.504,-0.384 0.512,-0.368 0.512,-1.152 z M 75.648057,20.8 h 4.096 V 40 h -4.096 V 20.8 Z m 22.992057,0 v 12.96 q 0,1.232 0.48,1.76 0.528,0.48 1.759996,0.48 h 6.208 v 4 h -6.496 q -1.647996,0 -2.799996,-0.336 -1.136,-0.352 -1.84,-1.072 -0.72,-0.704 -1.072,-1.856 -0.336,-1.168 -0.336,-2.784 V 20.8 Z m 28.240006,0 -7.168,10.24 V 40 h -4.096 v -8.96 l -7.168,-10.24 h 4.992 l 4.224,6.016 4.224,-6.016 h 4.992 z m 12.33598,0 h 4.096 V 40 h -4.928 l -7.168,-12.48 V 40 h -4.096 V 20.8 h 4.928 l 7.168,12.448 V 20.8 Z m 10.44802,0 4.224,6.016 4.224,-6.016 h 4.992 l -6.72,9.6 6.72,9.6 h -4.992 l -4.224,-6.048 -4.224,6.048 h -4.992 l 6.72,-9.6 -6.72,-9.6 h 4.992 z"
     id="text1"
     style="font-size:32px;line-height:0.1;font-family:Gayatri;-inkscape-font-specification:Gayatri;fill:#ffffff"
     aria-label="ATARI  LYNX" />
</svg>
