<?xml version="1.0" encoding="UTF-8" standalone="no"?>
<svg
   version="1.1"
   id="vertical"
   x="0px"
   y="0px"
   viewBox="0 0 240 40"
   sodipodi:docname="atarijaguarcd.svg"
   inkscape:version="1.4-beta (62f545ba5e, 2024-04-22)"
   width="240"
   height="40"
   xmlns:inkscape="http://www.inkscape.org/namespaces/inkscape"
   xmlns:sodipodi="http://sodipodi.sourceforge.net/DTD/sodipodi-0.dtd"
   xmlns="http://www.w3.org/2000/svg"
   xmlns:svg="http://www.w3.org/2000/svg">
  <defs
     id="defs2" />
  <sodipodi:namedview
     id="namedview2"
     pagecolor="#ffffff"
     bordercolor="#000000"
     borderopacity="0.25"
     inkscape:showpageshadow="2"
     inkscape:pageopacity="0.0"
     inkscape:pagecheckerboard="true"
     inkscape:deskcolor="#d1d1d1"
     inkscape:zoom="8.96"
     inkscape:cx="81.863839"
     inkscape:cy="20.033482"
     inkscape:window-width="1920"
     inkscape:window-height="1009"
     inkscape:window-x="-8"
     inkscape:window-y="-8"
     inkscape:window-maximized="1"
     inkscape:current-layer="vertical"
     showgrid="false" />
  <path
     d="m 18.944024,20.8 v 13.152 q 0,1.616 -0.352,2.784 -0.336,1.152 -1.056,1.856 -1.36,1.408 -4.64,1.408 H 6.4000244 l 3.9999996,-4 h 2.208 q 1.232,0 1.76,-0.48 0.48,-0.528 0.48,-1.76 V 20.8 Z M 34.208031,36 h -8.096 l -1.456,4 h -4.352 l 6.976,-19.2 h 5.728 l 7.008,19.2 h -4.352 l -1.456,-4 z m -4.88,-4 h 3.424 l -2.592,-7.104 -3.6,9.872 2.768,-2.768 z M 46.240042,20.8 h 10.208 v 4 h -9.792 q -1.168,0 -1.728,0.608 -0.576,0.576 -0.576,1.728 v 6.56 q 0,1.12 0.576,1.696 0.288,0.288 0.72,0.448 0.432,0.16 1.008,0.16 h 5.696 v -3.6 h -5.344 l 4,-4 h 5.44 V 40 h -3.904 -6.304 q -2.848,-0.048 -4.384,-1.632 -0.8,-0.768 -1.184,-1.856 -0.384,-1.104 -0.416,-2.56 v -7.168 q 0.032,-1.424 0.416,-2.512 0.384,-1.104 1.184,-1.872 0.768,-0.8 1.856,-1.184 1.104,-0.384 2.528,-0.416 z M 72.592059,33.696 V 20.8 h 4.096 v 13.152 q -0.032,1.456 -0.416,2.56 -0.384,1.088 -1.184,1.856 -1.536,1.584 -4.416,1.632 h -6.24 q -2.832,-0.048 -4.416,-1.632 -1.568,-1.568 -1.568,-4.416 V 20.8 h 4.096 v 18.016 l 2.816,-2.816 h 4.928 q 0.576,0 1.008,-0.16 0.432,-0.16 0.72,-0.448 0.576,-0.576 0.576,-1.696 z M 91.952049,36 h -8.096 l -1.456,4 h -4.352 l 6.976,-19.2 h 5.728 l 7.008,19.2 h -4.352 l -1.456,-4 z m -4.88,-4 h 3.424 l -2.592,-7.104 -3.6,9.872 2.768,-2.768 z M 108.62406,20.8 q 2.8,0 4.192,1.152 1.376,1.136 1.376,3.424 v 2.208 l -2.816,2.816 h 2.816 V 40 h -4.096 v -7.6 h -8 V 40 H 98.000061 V 20.8 Z m 1.472,6.064 v -0.496 q 0,-0.784 -0.512,-1.152 -0.48,-0.384 -1.504,-0.384 V 24.8 h -5.984 v 6.416 l 2.816,-2.816 h 3.168 q 1.024,0 1.504,-0.384 0.512,-0.368 0.512,-1.152 z M 135.00813,20.8 h 10.176 l -4,4 h -5.792 q -1.168,0 -1.728,0.608 -0.576,0.576 -0.576,1.728 v 6.56 q 0,1.12 0.576,1.696 0.288,0.288 0.72,0.448 0.432,0.16 1.008,0.16 h 9.792 v 4 h -10.176 q -1.456,-0.032 -2.544,-0.432 -1.072,-0.4 -1.872,-1.2 -0.8,-0.768 -1.184,-1.856 -0.384,-1.104 -0.416,-2.56 v -7.168 q 0.032,-1.424 0.416,-2.512 0.384,-1.104 1.184,-1.872 0.8,-0.8 1.872,-1.184 1.088,-0.384 2.544,-0.416 z M 147.18414,40 V 20.8 h 10.176 q 1.424,0.032 2.512,0.416 1.104,0.384 1.904,1.184 1.6,1.552 1.6,4.384 v 7.168 q 0,2.864 -1.6,4.416 -1.584,1.584 -4.416,1.632 z m 4.096,-15.2 v 14.016 l 2.816,-2.816 h 2.848 q 0.576,0 1.008,-0.16 0.432,-0.16 0.72,-0.448 0.288,-0.288 0.448,-0.704 0.16,-0.416 0.16,-0.992 v -6.56 q 0,-1.12 -0.608,-1.728 -0.56,-0.608 -1.728,-0.608 z"
     id="text1"
     style="font-size:32px;line-height:0.1;font-family:Gayatri;-inkscape-font-specification:Gayatri;fill:#ffffff"
     aria-label=" JAGUAR  CD" />
  <path
     d="M 13.904,15.200001 H 5.808 l -1.456,4 H -1.4305115e-8 L 6.976,7.6293945e-7 h 5.728 L 19.712,19.200001 H 15.36 l -1.456,-4 z m -4.88,-4 h 3.424 l -2.592,-7.1040002 -3.6,9.8720002 2.768,-2.768 z M 23.952012,7.6293945e-7 h 12.192 V 4.0000008 h -6.048 V 19.200001 h -4.096 V 4.0000008 h -6.048 l 4,-4.00000003706055 z M 51.408028,15.200001 h -8.096 l -1.456,4 h -4.352 L 44.480028,7.6293945e-7 h 5.728 L 57.216028,19.200001 h -4.352 l -1.456,-4 z m -4.88,-4 h 3.424 l -2.592,-7.1040002 -3.6,9.8720002 2.768,-2.768 z M 68.08004,7.6293945e-7 q 2.8,0 4.192,1.15200003706055 1.376,1.136 1.376,3.424 v 2.208 l -2.816,2.816 h 2.816 v 9.6000002 h -4.096 v -7.6 h -8 v 7.6 h -4.096 V 7.6293945e-7 Z M 69.55204,6.0640008 v -0.496 q 0,-0.784 -0.512,-1.152 -0.48,-0.384 -1.504,-0.384 v -0.032 h -5.984 v 6.4160002 l 2.816,-2.8160002 h 3.168 q 1.024,0 1.504,-0.384 0.512,-0.368 0.512,-1.152 z M 75.648057,7.6293945e-7 h 4.096 V 19.200001 h -4.096 V 7.6293945e-7 Z"
     id="text2"
     style="font-size:32px;line-height:0.1;font-family:Gayatri;-inkscape-font-specification:Gayatri;fill:#ffffff"
     aria-label="ATARI" />
</svg>
