<?xml version="1.0" encoding="UTF-8" standalone="no"?>
<svg
   version="1.1"
   id="vertical"
   x="0px"
   y="0px"
   viewBox="0 0 240 40"
   sodipodi:docname="auto-asiaticboard.svg"
   inkscape:version="1.4-beta (62f545ba5e, 2024-04-22)"
   width="240"
   height="40"
   xmlns:inkscape="http://www.inkscape.org/namespaces/inkscape"
   xmlns:sodipodi="http://sodipodi.sourceforge.net/DTD/sodipodi-0.dtd"
   xmlns="http://www.w3.org/2000/svg"
   xmlns:svg="http://www.w3.org/2000/svg">
  <defs
     id="defs2" />
  <sodipodi:namedview
     id="namedview2"
     pagecolor="#ffffff"
     bordercolor="#000000"
     borderopacity="0.25"
     inkscape:showpageshadow="2"
     inkscape:pageopacity="0.0"
     inkscape:pagecheckerboard="true"
     inkscape:deskcolor="#d1d1d1"
     inkscape:zoom="8.96"
     inkscape:cx="61.941964"
     inkscape:cy="20.033482"
     inkscape:window-width="1920"
     inkscape:window-height="1009"
     inkscape:window-x="-8"
     inkscape:window-y="-8"
     inkscape:window-maximized="1"
     inkscape:current-layer="vertical"
     showgrid="false" />
  <path
     d="M 13.904,15.200001 H 5.808 l -1.456,4 H -1.4305115e-8 L 6.976,7.6293945e-7 h 5.728 L 19.712,19.200001 H 15.36 l -1.456,-4 z m -4.88,-4 h 3.424 l -2.592,-7.1040002 -3.6,9.8720002 2.768,-2.768 z m 16.464012,0.4 q -2.768,0 -4.16,-1.152 -1.376,-1.1360002 -1.376,-3.4560002 v -2.416 q 0,-4.57600003706055 5.536,-4.57600003706055 h 10.144 V 4.0000008 h -9.568 q -1.024,0 -1.504,0.384 -0.512,0.368 -0.512,1.152 v 0.528 q 0,0.784 0.512,1.152 0.48,0.384 1.504,0.384 h 4.512 q 2.8,0 4.192,1.152 1.376,1.184 1.376,3.4240002 v 2.448 q 0,4.576 -5.568,4.576 h -10.624 l 4,-4 h 6.08 q 1.024,0 1.504,-0.384 0.512,-0.368 0.512,-1.12 v -0.592 q 0,-0.752 -0.512,-1.12 -0.48,-0.384 -1.504,-0.384 z M 38.144028,7.6293945e-7 h 4.096 V 19.200001 h -4.096 V 7.6293945e-7 Z M 57.504037,15.200001 h -8.096 l -1.456,4 h -4.352 L 50.576037,7.6293945e-7 h 5.728 L 63.312037,19.200001 h -4.352 l -1.456,-4 z m -4.88,-4 h 3.424 l -2.592,-7.1040002 -3.6,9.8720002 2.768,-2.768 z M 75.648048,7.6293945e-7 h 4.096 V 19.200001 h -4.928 l -7.168,-12.4800002 V 19.200001 h -4.096 V 7.6293945e-7 h 4.928 L 75.648048,12.448001 V 7.6293945e-7 Z M 106.64011,11.600001 h -7.999996 v 6.416 l 2.815996,-2.816 h 3.168 q 0.976,0 1.504,-0.384 0.512,-0.416 0.512,-1.12 z M 94.544114,7.6293945e-7 h 10.623996 q 5.568,0 5.568,4.57600003706055 v 2.24 l -2.816,2.784 h 2.816 v 5.0240002 q 0,4.576 -5.568,4.576 H 94.544114 Z M 98.640114,4.0000008 v 6.4160002 l 2.815996,-2.8160002 h 3.168 q 0.976,0 1.504,-0.384 0.512,-0.416 0.512,-1.12 v -0.56 q 0,-0.736 -0.512,-1.152 -0.528,-0.384 -1.504,-0.384 z m 14.096016,1.984 q 0,-1.424 0.4,-2.512 0.4,-1.104 1.168,-1.872 0.8,-0.80000004 1.888,-1.18400004 1.104,-0.384 2.528,-0.41599999706055 h 6.272 Q 126.41613,0.03200076 127.50413,0.41600076 q 1.104,0.384 1.872,1.18400004 1.6,1.552 1.6,4.384 v 7.1680002 q 0,2.864 -1.6,4.416 -1.536,1.584 -4.384,1.632 h -6.272 q -2.832,-0.048 -4.416,-1.632 -1.568,-1.568 -1.568,-4.416 z m 4.096,0.32 V 18.016001 l 2.816,-2.816 h 4.96 q 0.56,0 0.976,-0.16 0.432,-0.16 0.72,-0.448 0.576,-0.576 0.576,-1.696 V 6.3040008 q 0,-1.152 -0.576,-1.728 -0.576,-0.576 -1.696,-0.576 h -5.504 q -1.12,0 -1.696,0.576 -0.576,0.576 -0.576,1.728 z m 29.40799,8.8960002 h -8.096 l -1.456,4 h -4.352 L 139.31212,7.6293945e-7 h 5.728 L 152.04812,19.200001 h -4.352 l -1.456,-4 z m -4.88,-4 h 3.424 l -2.592,-7.1040002 -3.6,9.8720002 2.768,-2.768 z M 162.91213,7.6293945e-7 q 2.8,0 4.192,1.15200003706055 1.376,1.136 1.376,3.424 v 2.208 l -2.816,2.816 h 2.816 v 9.6000002 h -4.096 v -7.6 h -8 v 7.6 h -4.096 V 7.6293945e-7 Z M 164.38413,6.0640008 v -0.496 q 0,-0.784 -0.512,-1.152 -0.48,-0.384 -1.504,-0.384 v -0.032 h -5.984 v 6.4160002 l 2.816,-2.8160002 h 3.168 q 1.024,0 1.504,-0.384 0.512,-0.368 0.512,-1.152 z m 6.09602,13.1360002 V 7.6293945e-7 h 10.176 Q 182.08015,0.03200076 183.16815,0.41600076 q 1.104,0.384 1.904,1.18400004 1.6,1.552 1.6,4.384 v 7.1680002 q 0,2.864 -1.6,4.416 -1.584,1.584 -4.416,1.632 z m 4.096,-15.2000002 V 18.016001 l 2.816,-2.816 h 2.848 q 0.576,0 1.008,-0.16 0.432,-0.16 0.72,-0.448 0.288,-0.288 0.448,-0.704 0.16,-0.416 0.16,-0.992 V 6.3360008 q 0,-1.12 -0.608,-1.728 -0.56,-0.608 -1.728,-0.608 z"
     id="text5"
     style="font-size:32px;line-height:0.1;font-family:Gayatri;-inkscape-font-specification:Gayatri;fill:#ffffff"
     aria-label="ASIAN  BOARD" />
  <path
     d="m 12.384024,20.8 h 10.208 v 4 h -9.792 q -1.168,0 -1.728,0.608 -0.576,0.576 -0.576,1.728 v 6.56 q 0,1.12 0.576,1.696 0.288,0.288 0.72,0.448 0.432,0.16 1.008,0.16 h 5.696 v -3.6 h -5.344 l 4,-4 h 5.44 V 40 h -3.904 -6.304 q -2.8479996,-0.048 -4.3839996,-1.632 -0.8,-0.768 -1.184,-1.856 -0.384,-1.104 -0.416,-2.56 v -7.168 q 0.032,-1.424 0.416,-2.512 0.384,-1.104 1.184,-1.872 0.768,-0.8 1.856,-1.184 Q 10.960024,20.832 12.384024,20.8 Z M 37.856041,36 h -8.096 l -1.456,4 h -4.352 l 6.976,-19.2 h 5.728 l 7.008,19.2 h -4.352 l -1.456,-4 z m -4.88,-4 h 3.424 l -2.592,-7.104 -3.6,9.872 2.768,-2.768 z M 60.256053,20.8 h 6.72 V 40 h -4.096 V 25.504 L 57.632053,40 h -4.352 l -5.28,-14.496 V 40 h -4.096 V 20.8 h 6.72 l 4.832,13.216 4.8,-13.216 z m 14.736021,0 h 10.176 v 4 h -9.888 q -1.248,0 -1.728,0.48 -0.272,0.272 -0.384,0.704 -0.096,0.432 -0.096,1.056 v 4.176 l 2.816,-2.816 h 9.28 v 4 h -12.096 v 1.36 q 0,0.624 0.096,1.056 0.112,0.432 0.384,0.704 0.48,0.48 1.728,0.48 h 9.888 v 4 h -10.176 q -1.648,0 -2.8,-0.336 -1.136,-0.352 -1.84,-1.072 -0.704,-0.704 -1.04,-1.856 -0.336,-1.168 -0.336,-2.784 v -7.136 q 0,-3.264 1.376,-4.64 0.704,-0.704 1.84,-1.056 1.152,-0.352 2.8,-0.32 z m 17.712017,11.6 q -2.768,0 -4.16,-1.152 -1.376,-1.136 -1.376,-3.456 v -2.416 q 0,-4.576 5.536,-4.576 h 10.143999 v 4 h -9.567999 q -1.024,0 -1.504,0.384 -0.512,0.368 -0.512,1.152 v 0.528 q 0,0.784 0.512,1.152 0.48,0.384 1.504,0.384 h 4.512 q 2.799999,0 4.191999,1.152 1.376,1.184 1.376,3.424 v 2.448 q 0,4.576 -5.567999,4.576 h -10.624 l 4,-4 h 6.08 q 1.024,0 1.504,-0.384 0.512,-0.368 0.512,-1.12 v -0.592 q 0,-0.752 -0.512,-1.12 -0.48,-0.384 -1.504,-0.384 z"
     id="text6"
     style="font-size:32px;line-height:0.1;font-family:Gayatri;-inkscape-font-specification:Gayatri;fill:#ffffff"
     aria-label=" GAMES" />
</svg>
