<?xml version="1.0" encoding="UTF-8" standalone="no"?>
<svg
   version="1.1"
   id="vertical"
   x="0px"
   y="0px"
   viewBox="0 0 240 40"
   sodipodi:docname="auto-lightgun.svg"
   inkscape:version="1.4-beta (62f545ba5e, 2024-04-22)"
   width="240"
   height="40"
   xmlns:inkscape="http://www.inkscape.org/namespaces/inkscape"
   xmlns:sodipodi="http://sodipodi.sourceforge.net/DTD/sodipodi-0.dtd"
   xmlns="http://www.w3.org/2000/svg"
   xmlns:svg="http://www.w3.org/2000/svg">
  <defs
     id="defs2" />
  <sodipodi:namedview
     id="namedview2"
     pagecolor="#ffffff"
     bordercolor="#000000"
     borderopacity="0.25"
     inkscape:showpageshadow="2"
     inkscape:pageopacity="0.0"
     inkscape:pagecheckerboard="true"
     inkscape:deskcolor="#d1d1d1"
     inkscape:zoom="8.96"
     inkscape:cx="64.285714"
     inkscape:cy="20.033482"
     inkscape:window-width="1920"
     inkscape:window-height="1009"
     inkscape:window-x="-8"
     inkscape:window-y="-8"
     inkscape:window-maximized="1"
     inkscape:current-layer="vertical" />
  <path
     d="M 4.096,7.6293945e-7 V 12.960001 q 0,1.232 0.48,1.76 0.528,0.48 1.76,0.48 h 6.208 v 4 H 6.048 q -1.648,0 -2.8,-0.336 -1.136,-0.352 -1.84,-1.072 -0.72,-0.704 -1.072,-1.856 Q 0,14.768001 0,13.152001 V 7.6293945e-7 Z m 10.448006,0 h 4.096 V 19.200001 h -4.096 V 7.6293945e-7 Z m 12.080009,0 h 10.208 V 4.0000008 h -9.792 q -1.168,0 -1.728,0.608 -0.576,0.576 -0.576,1.728 v 6.5600002 q 0,1.12 0.576,1.696 0.288,0.288 0.72,0.448 0.432,0.16 1.008,0.16 h 5.696 v -3.6 h -5.344 l 4,-4.0000002 h 5.44 V 19.200001 h -3.904 -6.304 q -2.848,-0.048 -4.384,-1.632 -0.8,-0.768 -1.184,-1.856 -0.384,-1.104 -0.416,-2.56 V 5.9840008 q 0.032,-1.424 0.416,-2.512 0.384,-1.104 1.184,-1.872 0.768,-0.80000004 1.856,-1.18400004 1.104,-0.384 2.528,-0.41599999706055 z m 12.208016,0 h 4.096 V 10.416001 l 2.816,-2.8160002 h 5.184 V 7.6293945e-7 h 4.096 V 19.200001 h -4.096 v -7.6 h -8 v 7.6 h -4.096 V 7.6293945e-7 Z m 22.192017,0 h 12.192 V 4.0000008 h -6.048 V 19.200001 h -4.096 V 4.0000008 h -6.048 l 4,-4.00000003706055 z M 75.216064,7.6000008 h 12.096 v 4.0000002 h -12.096 V 7.6000008 Z M 95.296073,7.6293945e-7 H 105.50407 V 4.0000008 h -9.791997 q -1.168,0 -1.728,0.608 -0.576,0.576 -0.576,1.728 v 6.5600002 q 0,1.12 0.576,1.696 0.288,0.288 0.72,0.448 0.432,0.16 1.008,0.16 h 5.695997 v -3.6 h -5.343997 l 3.999997,-4.0000002 h 5.44 V 19.200001 h -3.904 -6.303997 q -2.848,-0.048 -4.384,-1.632 -0.8,-0.768 -1.184,-1.856 -0.384,-1.104 -0.416,-2.56 V 5.9840008 q 0.032,-1.424 0.416,-2.512 0.384,-1.104 1.184,-1.872 0.768,-0.80000004 1.856,-1.18400004 1.104,-0.384 2.528,-0.41599999706055 z M 121.64809,12.896001 V 7.6293945e-7 h 4.096 V 13.152001 q -0.032,1.456 -0.416,2.56 -0.384,1.088 -1.184,1.856 -1.536,1.584 -4.416,1.632 h -6.24 q -2.832,-0.048 -4.416,-1.632 -1.568,-1.568 -1.568,-4.416 V 7.6293945e-7 h 4.096 V 18.016001 l 2.816,-2.816 h 4.928 q 0.576,0 1.008,-0.16 0.432,-0.16 0.72,-0.448 0.576,-0.576 0.576,-1.696 z M 139.84008,7.6293945e-7 h 4.096 V 19.200001 h -4.928 l -7.168,-12.4800002 V 19.200001 h -4.096 V 7.6293945e-7 h 4.928 L 139.84008,12.448001 V 7.6293945e-7 Z"
     id="text51"
     style="font-size:32px;line-height:0.1;font-family:Gayatri;-inkscape-font-specification:Gayatri;fill:#ffffff"
     aria-label="LIGHT-GUN" />
  <path
     d="m 12.384024,20.8 h 10.208 v 4 h -9.792 q -1.168,0 -1.728,0.608 -0.576,0.576 -0.576,1.728 v 6.56 q 0,1.12 0.576,1.696 0.288,0.288 0.72,0.448 0.432,0.16 1.008,0.16 h 5.696 v -3.6 h -5.344 l 4,-4 h 5.44 V 40 h -3.904 -6.304 q -2.8479996,-0.048 -4.3839996,-1.632 -0.8,-0.768 -1.184,-1.856 -0.384,-1.104 -0.416,-2.56 v -7.168 q 0.032,-1.424 0.416,-2.512 0.384,-1.104 1.184,-1.872 0.768,-0.8 1.856,-1.184 Q 10.960024,20.832 12.384024,20.8 Z M 37.856041,36 h -8.096 l -1.456,4 h -4.352 l 6.976,-19.2 h 5.728 l 7.008,19.2 h -4.352 l -1.456,-4 z m -4.88,-4 h 3.424 l -2.592,-7.104 -3.6,9.872 2.768,-2.768 z M 60.256053,20.8 h 6.72 V 40 h -4.096 V 25.504 L 57.632053,40 h -4.352 l -5.28,-14.496 V 40 h -4.096 V 20.8 h 6.72 l 4.832,13.216 4.8,-13.216 z m 14.736021,0 h 10.176 v 4 h -9.888 q -1.248,0 -1.728,0.48 -0.272,0.272 -0.384,0.704 -0.096,0.432 -0.096,1.056 v 4.176 l 2.816,-2.816 h 9.28 v 4 h -12.096 v 1.36 q 0,0.624 0.096,1.056 0.112,0.432 0.384,0.704 0.48,0.48 1.728,0.48 h 9.888 v 4 h -10.176 q -1.648,0 -2.8,-0.336 -1.136,-0.352 -1.84,-1.072 -0.704,-0.704 -1.04,-1.856 -0.336,-1.168 -0.336,-2.784 v -7.136 q 0,-3.264 1.376,-4.64 0.704,-0.704 1.84,-1.056 1.152,-0.352 2.8,-0.32 z m 17.712017,11.6 q -2.768,0 -4.16,-1.152 -1.376,-1.136 -1.376,-3.456 v -2.416 q 0,-4.576 5.536,-4.576 h 10.143999 v 4 h -9.567999 q -1.024,0 -1.504,0.384 -0.512,0.368 -0.512,1.152 v 0.528 q 0,0.784 0.512,1.152 0.48,0.384 1.504,0.384 h 4.512 q 2.799999,0 4.191999,1.152 1.376,1.184 1.376,3.424 v 2.448 q 0,4.576 -5.567999,4.576 h -10.624 l 4,-4 h 6.08 q 1.024,0 1.504,-0.384 0.512,-0.368 0.512,-1.12 v -0.592 q 0,-0.752 -0.512,-1.12 -0.48,-0.384 -1.504,-0.384 z"
     id="text52"
     style="font-size:32px;line-height:0.1;font-family:Gayatri;-inkscape-font-specification:Gayatri;fill:#ffffff"
     aria-label=" GAMES" />
</svg>
