<?xml version="1.0" encoding="UTF-8" standalone="no"?>
<svg
   version="1.1"
   id="vertical"
   x="0px"
   y="0px"
   viewBox="0 0 240 40"
   sodipodi:docname="auto-platform.svg"
   inkscape:version="1.4-beta (62f545ba5e, 2024-04-22)"
   width="240"
   height="40"
   xmlns:inkscape="http://www.inkscape.org/namespaces/inkscape"
   xmlns:sodipodi="http://sodipodi.sourceforge.net/DTD/sodipodi-0.dtd"
   xmlns="http://www.w3.org/2000/svg"
   xmlns:svg="http://www.w3.org/2000/svg">
  <defs
     id="defs2" />
  <sodipodi:namedview
     id="namedview2"
     pagecolor="#ffffff"
     bordercolor="#000000"
     borderopacity="0.25"
     inkscape:showpageshadow="2"
     inkscape:pageopacity="0.0"
     inkscape:pagecheckerboard="true"
     inkscape:deskcolor="#d1d1d1"
     inkscape:zoom="8.96"
     inkscape:cx="49.107143"
     inkscape:cy="20.033482"
     inkscape:window-width="1920"
     inkscape:window-height="1009"
     inkscape:window-x="-8"
     inkscape:window-y="-8"
     inkscape:window-maximized="1"
     inkscape:current-layer="vertical" />
  <path
     d="m 10.624,0.00266724 q 2.8,0 4.192,1.15199996 1.376,1.136 1.376,3.424 v 2.416 q 0,2.32 -1.376,3.4559998 -1.392,1.152 -4.192,1.152 H 4.096 v 7.6 H 0 V 0.00266724 Z m 1.472,6.06399996 v -0.496 q 0,-0.784 -0.512,-1.152 -0.48,-0.384 -1.504,-0.384 v -0.032 H 4.096 V 10.418667 L 6.88,7.6026672 h 3.2 q 1.024,0 1.504,-0.384 0.512,-0.368 0.512,-1.152 z M 22.288017,0.00266724 V 12.962667 q 0,1.232 0.48,1.76 0.528,0.48 1.76,0.48 h 6.208 v 4 h -6.496 q -1.648,0 -2.8,-0.336 -1.136,-0.352 -1.84,-1.072 -0.72,-0.704 -1.072,-1.856 -0.336,-1.168 -0.336,-2.784 V 0.00266724 Z M 46.000023,15.202667 h -8.096 l -1.456,4 h -4.352 l 6.976,-19.19999976 h 5.728 l 7.008,19.19999976 h -4.352 l -1.456,-4 z m -4.88,-4 h 3.424 l -2.592,-7.1039998 -3.6,9.8719998 2.768,-2.768 z M 56.048035,0.00266724 h 12.192 V 4.0026672 h -6.048 V 19.202667 h -4.096 V 4.0026672 h -6.048 l 4,-3.99999996 z M 74.336051,19.202667 h -4.096 V 6.0186672 q -0.032,-1.648 0.32,-2.784 0.352,-1.152 1.056,-1.856 0.704,-0.70399996 1.84,-1.05599996 1.152,-0.352 2.8,-0.32 h 10.176 V 4.0026672 h -9.888 q -1.248,0 -1.728,0.48 -0.528,0.528 -0.48,1.76 v 4.1759998 l 2.816,-2.8159998 h 9.28 v 3.9999998 h -12.096 z M 88.432068,5.9866672 q 0,-1.424 0.4,-2.512 0.4,-1.104 1.168,-1.872 0.8,-0.79999996 1.888,-1.18399996 1.104,-0.384 2.528,-0.416 h 6.272002 q 1.424,0.032 2.512,0.416 1.104,0.384 1.872,1.18399996 1.6,1.552 1.6,4.384 v 7.1679998 q 0,2.864 -1.6,4.416 -1.536,1.584 -4.384,1.632 h -6.272002 q -2.832,-0.048 -4.416,-1.632 -1.568,-1.568 -1.568,-4.416 z m 4.096,0.32 V 18.018667 l 2.816,-2.816 h 4.960002 q 0.56,0 0.976,-0.16 0.432,-0.16 0.72,-0.448 0.576,-0.576 0.576,-1.696 V 6.3066672 q 0,-1.152 -0.576,-1.728 -0.576,-0.576 -1.696,-0.576 h -5.504002 q -1.12,0 -1.696,0.576 -0.576,0.576 -0.576,1.728 z M 119.29606,0.00266724 q 2.8,0 4.192,1.15199996 1.376,1.136 1.376,3.424 v 2.208 l -2.816,2.816 h 2.816 v 9.5999998 h -4.096 v -7.6 h -8 v 7.6 h -4.096 V 0.00266724 Z m 1.472,6.06399996 v -0.496 q 0,-0.784 -0.512,-1.152 -0.48,-0.384 -1.504,-0.384 v -0.032 h -5.984 v 6.4159998 l 2.816,-2.8159998 h 3.168 q 1.024,0 1.504,-0.384 0.512,-0.368 0.512,-1.152 z m 22.44801,-6.06399996 h 6.72 V 19.202667 h -4.096 V 4.7066672 l -5.248,14.4959998 h -4.352 l -5.28,-14.4959998 V 19.202667 h -4.096 V 0.00266724 h 6.72 l 4.832,13.21599976 4.8,-13.21599976 z m 14.73603,0 h 10.176 V 4.0026672 h -9.888 q -1.248,0 -1.728,0.48 -0.272,0.272 -0.384,0.704 -0.096,0.432 -0.096,1.056 v 4.1759998 l 2.816,-2.8159998 h 9.28 v 3.9999998 h -12.096 v 1.36 q 0,0.624 0.096,1.056 0.112,0.432 0.384,0.704 0.48,0.48 1.728,0.48 h 9.888 v 4 h -10.176 q -1.648,0 -2.8,-0.336 -1.136,-0.352 -1.84,-1.072 -0.704,-0.704 -1.04,-1.856 -0.336,-1.168 -0.336,-2.784 V 6.0186672 q 0,-3.264 1.376,-4.64 0.704,-0.70399996 1.84,-1.05599996 1.152,-0.352 2.8,-0.32 z m 22.80001,0 q 2.8,0 4.192,1.15199996 1.376,1.136 1.376,3.424 v 2.208 l -2.816,2.816 h 2.816 v 9.5999998 h -4.096 v -7.6 h -8 v 7.6 h -4.096 V 0.00266724 Z m 1.472,6.06399996 v -0.496 q 0,-0.784 -0.512,-1.152 -0.48,-0.384 -1.504,-0.384 v -0.032 h -5.984 v 6.4159998 l 2.816,-2.8159998 h 3.168 q 1.024,0 1.504,-0.384 0.512,-0.368 0.512,-1.152 z"
     id="text56"
     style="font-size:32px;line-height:0.1;font-family:Gayatri;-inkscape-font-specification:Gayatri;fill:#ffffff"
     aria-label="PLATFORMER" />
  <path
     d="m 12.384024,20.8 h 10.208 v 4 h -9.792 q -1.168,0 -1.728,0.608 -0.576,0.576 -0.576,1.728 v 6.56 q 0,1.12 0.576,1.696 0.288,0.288 0.72,0.448 0.432,0.16 1.008,0.16 h 5.696 v -3.6 h -5.344 l 4,-4 h 5.44 V 40 h -3.904 -6.304 q -2.8479996,-0.048 -4.3839996,-1.632 -0.8,-0.768 -1.184,-1.856 -0.384,-1.104 -0.416,-2.56 v -7.168 q 0.032,-1.424 0.416,-2.512 0.384,-1.104 1.184,-1.872 0.768,-0.8 1.856,-1.184 Q 10.960024,20.832 12.384024,20.8 Z M 37.856041,36 h -8.096 l -1.456,4 h -4.352 l 6.976,-19.2 h 5.728 l 7.008,19.2 h -4.352 l -1.456,-4 z m -4.88,-4 h 3.424 l -2.592,-7.104 -3.6,9.872 2.768,-2.768 z M 60.256053,20.8 h 6.72 V 40 h -4.096 V 25.504 L 57.632053,40 h -4.352 l -5.28,-14.496 V 40 h -4.096 V 20.8 h 6.72 l 4.832,13.216 4.8,-13.216 z m 14.736021,0 h 10.176 v 4 h -9.888 q -1.248,0 -1.728,0.48 -0.272,0.272 -0.384,0.704 -0.096,0.432 -0.096,1.056 v 4.176 l 2.816,-2.816 h 9.28 v 4 h -12.096 v 1.36 q 0,0.624 0.096,1.056 0.112,0.432 0.384,0.704 0.48,0.48 1.728,0.48 h 9.888 v 4 h -10.176 q -1.648,0 -2.8,-0.336 -1.136,-0.352 -1.84,-1.072 -0.704,-0.704 -1.04,-1.856 -0.336,-1.168 -0.336,-2.784 v -7.136 q 0,-3.264 1.376,-4.64 0.704,-0.704 1.84,-1.056 1.152,-0.352 2.8,-0.32 z m 17.712017,11.6 q -2.768,0 -4.16,-1.152 -1.376,-1.136 -1.376,-3.456 v -2.416 q 0,-4.576 5.536,-4.576 h 10.143999 v 4 h -9.567999 q -1.024,0 -1.504,0.384 -0.512,0.368 -0.512,1.152 v 0.528 q 0,0.784 0.512,1.152 0.48,0.384 1.504,0.384 h 4.512 q 2.799999,0 4.191999,1.152 1.376,1.184 1.376,3.424 v 2.448 q 0,4.576 -5.567999,4.576 h -10.624 l 4,-4 h 6.08 q 1.024,0 1.504,-0.384 0.512,-0.368 0.512,-1.12 v -0.592 q 0,-0.752 -0.512,-1.12 -0.48,-0.384 -1.504,-0.384 z"
     id="text57"
     style="font-size:32px;line-height:0.1;font-family:Gayatri;-inkscape-font-specification:Gayatri;fill:#ffffff"
     aria-label=" GAMES" />
</svg>
