<?xml version="1.0" encoding="UTF-8" standalone="no"?>
<svg
   version="1.1"
   id="vertical"
   x="0px"
   y="0px"
   viewBox="0 0 240 40"
   sodipodi:docname="auto-huntingandfishing.svg"
   inkscape:version="1.4-beta (62f545ba5e, 2024-04-22)"
   width="240"
   height="40"
   xmlns:inkscape="http://www.inkscape.org/namespaces/inkscape"
   xmlns:sodipodi="http://sodipodi.sourceforge.net/DTD/sodipodi-0.dtd"
   xmlns="http://www.w3.org/2000/svg"
   xmlns:svg="http://www.w3.org/2000/svg">
  <defs
     id="defs2" />
  <sodipodi:namedview
     id="namedview2"
     pagecolor="#ffffff"
     bordercolor="#000000"
     borderopacity="0.25"
     inkscape:showpageshadow="2"
     inkscape:pageopacity="0.0"
     inkscape:pagecheckerboard="true"
     inkscape:deskcolor="#d1d1d1"
     inkscape:zoom="8.96"
     inkscape:cx="157.92411"
     inkscape:cy="20.033482"
     inkscape:window-width="1920"
     inkscape:window-height="1009"
     inkscape:window-x="-8"
     inkscape:window-y="-8"
     inkscape:window-maximized="1"
     inkscape:current-layer="vertical" />
  <path
     d="M 0,7.6293945e-7 H 4.096 V 10.416001 L 6.912,7.6000008 h 5.184 V 7.6293945e-7 h 4.096 V 19.200001 h -4.096 v -7.6 h -8 v 7.6 H 0 V 7.6293945e-7 Z M 32.336017,12.896001 V 7.6293945e-7 h 4.096 V 13.152001 q -0.032,1.456 -0.416,2.56 -0.384,1.088 -1.184,1.856 -1.536,1.584 -4.416,1.632 h -6.24 q -2.832,-0.048 -4.416,-1.632 -1.568,-1.568 -1.568,-4.416 V 7.6293945e-7 h 4.096 V 18.016001 l 2.816,-2.816 h 4.928 q 0.576,0 1.008,-0.16 0.432,-0.16 0.72,-0.448 0.576,-0.576 0.576,-1.696 z M 50.528007,7.6293945e-7 h 4.096 V 19.200001 h -4.928 l -7.168,-12.4800002 V 19.200001 h -4.096 V 7.6293945e-7 h 4.928 L 50.528007,12.448001 V 7.6293945e-7 Z m 10.096016,0 h 12.192 V 4.0000008 h -6.048 V 19.200001 h -4.096 V 4.0000008 h -6.048 l 4,-4.00000003706055 z m 14.192017,0 h 4.096 V 19.200001 h -4.096 V 7.6293945e-7 Z m 18.192008,0 h 4.096 V 19.200001 h -4.928 l -7.168,-12.4800002 V 19.200001 h -4.096 V 7.6293945e-7 h 4.928 L 93.008048,12.448001 V 7.6293945e-7 Z m 12.080012,0 h 10.208 V 4.0000008 h -9.792 q -1.168,0 -1.728,0.608 -0.576,0.576 -0.576,1.728 v 6.5600002 q 0,1.12 0.576,1.696 0.288,0.288 0.72,0.448 0.432,0.16 1.008,0.16 h 5.696 v -3.6 h -5.344 l 4,-4.0000002 h 5.44 V 19.200001 h -3.904 -6.304 q -2.848,-0.048 -4.384,-1.632 -0.799995,-0.768 -1.183995,-1.856 -0.384,-1.104 -0.416,-2.56 V 5.9840008 q 0.032,-1.424 0.416,-2.512 0.384,-1.104 1.183995,-1.872 0.768,-0.80000004 1.856,-1.18400004 1.104,-0.384 2.528,-0.41599999706055 z M 136.16013,4.0000008 q -0.944,0.016 -1.456,0.384 -0.512,0.384 -0.512,1.136 v 2.08 h 1.968 z m 0,7.6000002 q -0.96,0 -1.456,0.384 -0.512,0.384 -0.512,1.136 v 0.56 q 0,0.752 0.512,1.136 0.496,0.384 1.456,0.384 z m 6.128,0 h -2.048 v 3.6 h 6.048 l -4,4 h -6.624 q -5.568,0 -5.568,-4.56 v -2.224 l 2.816,-2.8160002 h -2.816 v -5.04 q 0,-4.56000003706055 5.568,-4.56000003706055 h 4.576 V 7.6000008 h 6.048 z"
     id="text9"
     style="font-size:32px;line-height:0.1;font-family:Gayatri;-inkscape-font-specification:Gayatri;fill:#ffffff"
     aria-label="HUNTING  &amp;" />
  <path
     d="m 142.94392,40 h -4.096 V 26.816 q -0.032,-1.648 0.32,-2.784 0.352,-1.152 1.056,-1.856 0.704,-0.704 1.84,-1.056 1.152,-0.352 2.8,-0.32 h 10.176 v 4 h -9.888 q -1.248,0 -1.728,0.48 -0.528,0.528 -0.48,1.76 v 4.176 l 2.816,-2.816 h 9.28 v 4 h -12.096 z m 14.09601,-19.2 h 4.096 V 40 h -4.096 V 20.8 Z m 11.63201,11.6 q -2.768,0 -4.16,-1.152 -1.376,-1.136 -1.376,-3.456 v -2.416 q 0,-4.576 5.536,-4.576 h 10.144 v 4 h -9.568 q -1.024,0 -1.504,0.384 -0.512,0.368 -0.512,1.152 v 0.528 q 0,0.784 0.512,1.152 0.48,0.384 1.504,0.384 h 4.512 q 2.8,0 4.192,1.152 1.376,1.184 1.376,3.424 v 2.448 q 0,4.576 -5.568,4.576 h -10.624 l 4,-4 h 6.08 q 1.024,0 1.504,-0.384 0.512,-0.368 0.512,-1.12 v -0.592 q 0,-0.752 -0.512,-1.12 -0.48,-0.384 -1.504,-0.384 z m 12.65602,-11.6 h 4.096 v 10.416 l 2.816,-2.816 h 5.184 v -7.6 h 4.096 V 40 h -4.096 v -7.6 h -8 V 40 h -4.096 V 20.8 Z m 18.19201,0 h 4.096 V 40 h -4.096 V 20.8 Z m 18.19201,0 h 4.096 V 40 h -4.928 l -7.168,-12.48 V 40 h -4.096 V 20.8 h 4.928 l 7.168,12.448 V 20.8 Z m 12.08002,0 H 240 v 4 h -9.792 q -1.168,0 -1.728,0.608 -0.576,0.576 -0.576,1.728 v 6.56 q 0,1.12 0.576,1.696 0.288,0.288 0.72,0.448 0.432,0.16 1.008,0.16 h 5.696 v -3.6 h -5.344 l 4,-4 H 240 V 40 h -3.904 -6.304 q -2.848,-0.048 -4.384,-1.632 -0.8,-0.768 -1.184,-1.856 -0.384,-1.104 -0.416,-2.56 v -7.168 q 0.032,-1.424 0.416,-2.512 0.384,-1.104 1.184,-1.872 0.768,-0.8 1.856,-1.184 1.104,-0.384 2.528,-0.416 z"
     id="text10"
     style="font-size:32px;line-height:0.1;font-family:Gayatri;-inkscape-font-specification:Gayatri;fill:#ffffff"
     aria-label="FISHING" />
</svg>
