<?xml version="1.0" encoding="UTF-8" standalone="no"?>
<svg
   version="1.1"
   id="vertical"
   x="0px"
   y="0px"
   viewBox="0 0 240 40"
   sodipodi:docname="c128.svg"
   inkscape:version="1.4-beta (62f545ba5e, 2024-04-22)"
   width="240"
   height="40"
   xmlns:inkscape="http://www.inkscape.org/namespaces/inkscape"
   xmlns:sodipodi="http://sodipodi.sourceforge.net/DTD/sodipodi-0.dtd"
   xmlns="http://www.w3.org/2000/svg"
   xmlns:svg="http://www.w3.org/2000/svg">
  <defs
     id="defs2" />
  <sodipodi:namedview
     id="namedview2"
     pagecolor="#ffffff"
     bordercolor="#000000"
     borderopacity="0.25"
     inkscape:showpageshadow="2"
     inkscape:pageopacity="0.0"
     inkscape:pagecheckerboard="true"
     inkscape:deskcolor="#d1d1d1"
     inkscape:zoom="7.52"
     inkscape:cx="160.50532"
     inkscape:cy="20.412234"
     inkscape:window-width="1920"
     inkscape:window-height="1009"
     inkscape:window-x="-8"
     inkscape:window-y="-8"
     inkscape:window-maximized="1"
     inkscape:current-layer="vertical"
     showgrid="false" />
  <path
     d="m 6.016,20.8 h 10.176 l -4,4 H 6.4 q -1.168,0 -1.728,0.608 -0.576,0.576 -0.576,1.728 v 6.56 q 0,1.12 0.576,1.696 Q 4.96,35.68 5.392,35.84 5.824,36 6.4,36 h 9.792 v 4 H 6.016 Q 4.56,39.968 3.472,39.568 2.4,39.168 1.6,38.368 0.8,37.6 0.416,36.512 0.032,35.408 0,33.952 V 26.784 Q 0.032,25.36 0.416,24.272 0.8,23.168 1.6,22.4 2.4,21.6 3.472,21.216 4.56,20.832 6.016,20.8 Z m 12.176017,5.984 q 0,-1.424 0.4,-2.512 0.4,-1.104 1.168,-1.872 0.8,-0.8 1.888,-1.184 1.104,-0.384 2.528,-0.416 h 6.272 q 1.424,0.032 2.512,0.416 1.104,0.384 1.872,1.184 1.6,1.552 1.6,4.384 v 7.168 q 0,2.864 -1.6,4.416 -1.536,1.584 -4.384,1.632 h -6.272 q -2.832,-0.048 -4.416,-1.632 -1.568,-1.568 -1.568,-4.416 z m 4.096,0.32 v 11.712 l 2.816,-2.816 h 4.96 q 0.56,0 0.976,-0.16 0.432,-0.16 0.72,-0.448 0.576,-0.576 0.576,-1.696 v -6.592 q 0,-1.152 -0.576,-1.728 -0.576,-0.576 -1.696,-0.576 h -5.504 q -1.12,0 -1.696,0.576 -0.576,0.576 -0.576,1.728 z M 54.784007,20.8 h 6.72 V 40 h -4.096 V 25.504 L 52.160007,40 h -4.352 l -5.28,-14.496 V 40 h -4.096 V 20.8 h 6.72 l 4.832,13.216 4.8,-13.216 z m 25.072021,0 h 6.72 V 40 h -4.096 V 25.504 L 77.232028,40 h -4.352 l -5.28,-14.496 V 40 h -4.096 V 20.8 h 6.72 l 4.832,13.216 4.8,-13.216 z m 8.720022,5.984 q 0,-1.424 0.4,-2.512 0.4,-1.104 1.168,-1.872 0.8,-0.8 1.888,-1.184 1.104,-0.384 2.528,-0.416 h 6.272 q 1.424,0.032 2.512,0.416 1.104,0.384 1.872,1.184 1.6,1.552 1.6,4.384 v 7.168 q 0,2.864 -1.6,4.416 -1.536,1.584 -4.384,1.632 h -6.272 q -2.832,-0.048 -4.416,-1.632 -1.568,-1.568 -1.568,-4.416 z m 4.096,0.32 V 38.816 L 95.48805,36 h 4.96 q 0.56,0 0.976,-0.16 0.432,-0.16 0.72,-0.448 0.576,-0.576 0.576,-1.696 v -6.592 q 0,-1.152 -0.576,-1.728 -0.576,-0.576 -1.696,-0.576 h -5.504 q -1.12,0 -1.696,0.576 -0.576,0.576 -0.576,1.728 z M 108.81604,40 V 20.8 h 10.176 q 1.424,0.032 2.512,0.416 1.104,0.384 1.904,1.184 1.6,1.552 1.6,4.384 v 7.168 q 0,2.864 -1.6,4.416 -1.584,1.584 -4.416,1.632 z m 4.096,-15.2 v 14.016 l 2.816,-2.816 h 2.848 q 0.576,0 1.008,-0.16 0.432,-0.16 0.72,-0.448 0.288,-0.288 0.448,-0.704 0.16,-0.416 0.16,-0.992 v -6.56 q 0,-1.12 -0.608,-1.728 -0.56,-0.608 -1.728,-0.608 z m 14.09602,1.984 q 0,-1.424 0.4,-2.512 0.4,-1.104 1.168,-1.872 0.8,-0.8 1.888,-1.184 1.104,-0.384 2.528,-0.416 h 6.272 q 1.424,0.032 2.512,0.416 1.104,0.384 1.872,1.184 1.6,1.552 1.6,4.384 v 7.168 q 0,2.864 -1.6,4.416 -1.536,1.584 -4.384,1.632 h -6.272 q -2.832,-0.048 -4.416,-1.632 -1.568,-1.568 -1.568,-4.416 z m 4.096,0.32 v 11.712 l 2.816,-2.816 h 4.96 q 0.56,0 0.976,-0.16 0.432,-0.16 0.72,-0.448 0.576,-0.576 0.576,-1.696 v -6.592 q 0,-1.152 -0.576,-1.728 -0.576,-0.576 -1.696,-0.576 h -5.504 q -1.12,0 -1.696,0.576 -0.576,0.576 -0.576,1.728 z M 157.87205,20.8 q 2.8,0 4.192,1.152 1.376,1.136 1.376,3.424 v 2.208 l -2.816,2.816 h 2.816 V 40 h -4.096 v -7.6 h -8 V 40 h -4.096 V 20.8 Z m 1.472,6.064 v -0.496 q 0,-0.784 -0.512,-1.152 -0.48,-0.384 -1.504,-0.384 V 24.8 h -5.984 v 6.416 l 2.816,-2.816 h 3.168 q 1.024,0 1.504,-0.384 0.512,-0.368 0.512,-1.152 z M 171.45606,20.8 h 10.176 v 4 h -9.888 q -1.248,0 -1.728,0.48 -0.272,0.272 -0.384,0.704 -0.096,0.432 -0.096,1.056 v 4.176 l 2.816,-2.816 h 9.28 v 4 h -12.096 v 1.36 q 0,0.624 0.096,1.056 0.112,0.432 0.384,0.704 0.48,0.48 1.728,0.48 h 9.888 v 4 h -10.176 q -1.648,0 -2.8,-0.336 -1.136,-0.352 -1.84,-1.072 -0.704,-0.704 -1.04,-1.856 -0.336,-1.168 -0.336,-2.784 v -7.136 q 0,-3.264 1.376,-4.64 0.704,-0.704 1.84,-1.056 1.152,-0.352 2.8,-0.32 z m 24.97607,0 h 4.096 V 40 h -4.096 V 20.8 Z m 11.66401,7.6 h 4.512 q 0.976,0 1.504,-0.384 0.512,-0.416 0.512,-1.152 v -0.528 q 0,-0.736 -0.512,-1.152 -0.528,-0.384 -1.504,-0.384 h -6.08 l -4,-4 h 10.624 q 5.568,0 5.568,4.544 v 2.448 q 0,2.288 -1.408,3.456 -1.392,1.152 -4.16,1.152 h -4.512 q -0.976,0 -1.504,0.384 -0.24,0.192 -0.384,0.48 -0.128,0.272 -0.128,0.64 V 36 h 11.584 v 4 h -15.68 v -7.024 q 0,-1.152 0.352,-2 0.352,-0.848 1.056,-1.424 1.392,-1.152 4.16,-1.152 z m 23.18401,4 h -4.96 q -0.624,0.048 -1.024,0.352 -0.464,0.368 -0.512,1.12 v 4.944 l 2.848,-2.816 h 3.168 q 1.024,0 1.504,-0.384 0.512,-0.368 0.512,-1.12 v -0.624 q 0,-0.752 -0.512,-1.12 -0.192,-0.144 -0.448,-0.224 -0.24,-0.096 -0.576,-0.128 z m 0.064,-11.6 q 5.568,0 5.568,4.544 v 2.24 l -2.816,2.816 h 2.816 v 5.024 q 0,1.152 -0.352,2 -0.352,0.848 -1.024,1.424 -1.392,1.152 -4.192,1.152 h -5.088 q -2.768,0 -4.16,-1.152 -1.376,-1.136 -1.376,-3.424 v -2.208 l 2.816,-2.816 h -2.816 v -5.056 q 0,-4.544 5.536,-4.544 z m -0.544,7.6 q 1.024,0 1.504,-0.384 0.512,-0.368 0.512,-1.152 v -0.528 q 0,-0.784 -0.512,-1.152 -0.48,-0.384 -1.504,-0.384 h -3.968 q -1.008,0 -1.536,0.384 -0.464,0.368 -0.512,1.152 v 0.528 q 0.048,0.784 0.512,1.152 0.528,0.384 1.536,0.384 z"
     id="text14"
     style="font-size:32px;line-height:0.1;font-family:Gayatri;-inkscape-font-specification:Gayatri;fill:#ffffff"
     aria-label="COMMODORE  128" />
</svg>
