<?xml version="1.0" encoding="UTF-8" standalone="no"?>
<svg
   version="1.1"
   id="vertical"
   x="0px"
   y="0px"
   viewBox="0 0 240 40"
   sodipodi:docname="fm7.svg"
   inkscape:version="1.4-beta (62f545ba5e, 2024-04-22)"
   width="240"
   height="40"
   xmlns:inkscape="http://www.inkscape.org/namespaces/inkscape"
   xmlns:sodipodi="http://sodipodi.sourceforge.net/DTD/sodipodi-0.dtd"
   xmlns="http://www.w3.org/2000/svg"
   xmlns:svg="http://www.w3.org/2000/svg">
  <defs
     id="defs2" />
  <sodipodi:namedview
     id="namedview2"
     pagecolor="#ffffff"
     bordercolor="#000000"
     borderopacity="0.25"
     inkscape:showpageshadow="2"
     inkscape:pageopacity="0.0"
     inkscape:pagecheckerboard="true"
     inkscape:deskcolor="#d1d1d1"
     inkscape:zoom="8.96"
     inkscape:cx="153.62723"
     inkscape:cy="20.033482"
     inkscape:window-width="1920"
     inkscape:window-height="1009"
     inkscape:window-x="-8"
     inkscape:window-y="-8"
     inkscape:window-maximized="1"
     inkscape:current-layer="vertical"
     showgrid="false" />
  <path
     d="M 4.0986667,40 H 0.00266667 V 26.816 q -0.032,-1.648 0.32,-2.784 0.352,-1.152 1.05600003,-1.856 0.704,-0.704 1.84,-1.056 1.152,-0.352 2.8,-0.32 H 16.194667 v 4 H 6.3066667 q -1.248,0 -1.728,0.48 -0.528,0.528 -0.48,1.76 v 4.176 l 2.816,-2.816 h 9.2800003 v 4 H 4.0986667 Z M 32.338683,33.696 V 20.8 h 4.096 v 13.152 q -0.032,1.456 -0.416,2.56 -0.384,1.088 -1.184,1.856 -1.536,1.584 -4.416,1.632 h -6.24 q -2.832,-0.048 -4.416,-1.632 -1.568,-1.568 -1.568,-4.416 V 20.8 h 4.096 v 18.016 l 2.816,-2.816 h 4.928 q 0.576,0 1.008,-0.16 0.432,-0.16 0.72,-0.448 0.576,-0.576 0.576,-1.696 z M 50.978674,20.8 v 13.152 q 0,1.616 -0.352,2.784 -0.336,1.152 -1.056,1.856 -1.36,1.408 -4.64,1.408 h -6.496 l 4,-4 h 2.208 q 1.232,0 1.76,-0.48 0.48,-0.528 0.48,-1.76 V 20.8 Z m 2.000006,0 h 4.096 V 40 h -4.096 V 20.8 Z m 10.096008,0 h 12.192 v 4 h -6.048 V 40 h -4.096 V 24.8 h -6.048 l 4,-4 z m 19.728017,11.6 q -2.768,0 -4.16,-1.152 -1.376,-1.136 -1.376,-3.456 v -2.416 q 0,-4.576 5.536,-4.576 h 10.144 v 4 h -9.568 q -1.024,0 -1.504,0.384 -0.512,0.368 -0.512,1.152 v 0.528 q 0,0.784 0.512,1.152 0.48,0.384 1.504,0.384 h 4.512 q 2.8,0 4.192,1.152 1.376,1.184 1.376,3.424 v 2.448 q 0,4.576 -5.568,4.576 h -10.624 l 4,-4 h 6.08 q 1.024,0 1.504,-0.384 0.512,-0.368 0.512,-1.12 v -0.592 q 0,-0.752 -0.512,-1.12 -0.48,-0.384 -1.504,-0.384 z m 26.800015,1.296 V 20.8 h 4.096 v 13.152 q -0.032,1.456 -0.416,2.56 -0.384,1.088 -1.184,1.856 -1.536,1.584 -4.416,1.632 h -6.24 q -2.831999,-0.048 -4.415999,-1.632 -1.568,-1.568 -1.568,-4.416 V 20.8 h 4.096 V 38.816 L 102.37072,36 h 4.928 q 0.576,0 1.008,-0.16 0.432,-0.16 0.72,-0.448 0.576,-0.576 0.576,-1.696 z M 132.59476,40 h -4.096 V 26.816 q -0.032,-1.648 0.32,-2.784 0.352,-1.152 1.056,-1.856 0.704,-0.704 1.84,-1.056 1.152,-0.352 2.8,-0.32 h 10.176 v 4 h -9.888 q -1.248,0 -1.728,0.48 -0.528,0.528 -0.48,1.76 v 4.176 l 2.816,-2.816 h 9.28 v 4 h -12.096 z m 30.44802,-19.2 h 6.72 V 40 h -4.096 V 25.504 L 160.41878,40 h -4.352 l -5.28,-14.496 V 40 h -4.096 V 20.8 h 6.72 l 4.832,13.216 4.8,-13.216 z m 8.72002,7.6 h 12.096 v 4 h -12.096 v -4 z m 18.09601,-7.6 h 12.192 v 4 l -8.8,15.2 h -4.736 l 8.8,-15.2 h -11.456 l 4,-4 z"
     id="text12"
     style="font-size:32px;line-height:0.1;font-family:Gayatri;-inkscape-font-specification:Gayatri;fill:#ffffff"
     aria-label="FUJITSU  FM-7" />
</svg>
