<?xml version="1.0" encoding="UTF-8" standalone="no"?>
<svg
   version="1.1"
   id="vertical"
   x="0px"
   y="0px"
   viewBox="0 0 240 40"
   sodipodi:docname="gb2players.svg"
   inkscape:version="1.4-beta (62f545ba5e, 2024-04-22)"
   width="240"
   height="40"
   xmlns:inkscape="http://www.inkscape.org/namespaces/inkscape"
   xmlns:sodipodi="http://sodipodi.sourceforge.net/DTD/sodipodi-0.dtd"
   xmlns="http://www.w3.org/2000/svg"
   xmlns:svg="http://www.w3.org/2000/svg">
  <defs
     id="defs2" />
  <sodipodi:namedview
     id="namedview2"
     pagecolor="#ffffff"
     bordercolor="#000000"
     borderopacity="0.25"
     inkscape:showpageshadow="2"
     inkscape:pageopacity="0.0"
     inkscape:pagecheckerboard="true"
     inkscape:deskcolor="#d1d1d1"
     inkscape:zoom="8.96"
     inkscape:cx="51.506696"
     inkscape:cy="20.033482"
     inkscape:window-width="1920"
     inkscape:window-height="1009"
     inkscape:window-x="-8"
     inkscape:window-y="-8"
     inkscape:window-maximized="1"
     inkscape:current-layer="vertical"
     showgrid="false" />
  <path
     d="M 5.984,0.00266724 H 16.192 V 4.0026672 H 6.4 q -1.168,0 -1.728,0.608 -0.576,0.576 -0.576,1.728 v 6.5599998 q 0,1.12 0.576,1.696 0.288,0.288 0.72,0.448 0.432,0.16 1.008,0.16 h 5.696 v -3.6 H 6.752 l 4,-3.9999998 h 5.44 V 19.202667 H 12.288 5.984 q -2.848,-0.048 -4.384,-1.632 -0.8,-0.768 -1.184,-1.856 -0.384,-1.104 -0.416,-2.56 V 5.9866672 q 0.032,-1.424 0.416,-2.512 0.384,-1.104 1.184,-1.872 0.768,-0.79999996 1.856,-1.18399996 1.104,-0.384 2.528,-0.416 z M 31.456017,15.202667 h -8.096 l -1.456,4 h -4.352 l 6.976,-19.19999976 h 5.728 l 7.008,19.19999976 h -4.352 l -1.456,-4 z m -4.88,-4 h 3.424 l -2.592,-7.1039998 -3.6,9.8719998 2.768,-2.768 z M 53.856028,0.00266724 h 6.72 V 19.202667 h -4.096 V 4.7066672 l -5.248,14.4959998 h -4.352 l -5.28,-14.4959998 V 19.202667 h -4.096 V 0.00266724 h 6.72 l 4.832,13.21599976 4.8,-13.21599976 z m 14.736022,0 h 10.176 V 4.0026672 h -9.888 q -1.248,0 -1.728,0.48 -0.272,0.272 -0.384,0.704 -0.096,0.432 -0.096,1.056 v 4.1759998 l 2.816,-2.8159998 h 9.28 v 3.9999998 h -12.096 v 1.36 q 0,0.624 0.096,1.056 0.112,0.432 0.384,0.704 0.48,0.48 1.728,0.48 h 9.888 v 4 h -10.176 q -1.648,0 -2.8,-0.336 -1.136,-0.352 -1.84,-1.072 -0.704,-0.704 -1.04,-1.856 -0.336,-1.168 -0.336,-2.784 V 6.0186672 q 0,-3.264 1.376,-4.64 0.704,-0.70399996 1.84,-1.05599996 1.152,-0.352 2.8,-0.32 z M 92.864066,11.602667 h -8 v 6.416 l 2.816,-2.816 h 3.168 q 0.976,0 1.504,-0.384 0.512,-0.416 0.512,-1.12 z m -12.096,-11.59999976 h 10.624 q 5.568,0 5.568,4.57599996 v 2.24 l -2.816,2.784 h 2.816 v 5.0239998 q 0,4.576 -5.568,4.576 h -10.624 z m 4.096,3.99999996 v 6.4159998 l 2.816,-2.8159998 h 3.168 q 0.976,0 1.504,-0.384 0.512,-0.416 0.512,-1.12 v -0.56 q 0,-0.736 -0.512,-1.152 -0.528,-0.384 -1.504,-0.384 z m 14.096017,1.984 q 0,-1.424 0.4,-2.512 0.4,-1.104 1.167997,-1.872 0.8,-0.79999996 1.888,-1.18399996 1.104,-0.384 2.528,-0.416 h 6.272 q 1.424,0.032 2.512,0.416 1.104,0.384 1.872,1.18399996 1.6,1.552 1.6,4.384 v 7.1679998 q 0,2.864 -1.6,4.416 -1.536,1.584 -4.384,1.632 h -6.272 q -2.832,-0.048 -4.416,-1.632 -1.567997,-1.568 -1.567997,-4.416 z m 4.095997,0.32 V 18.018667 l 2.816,-2.816 h 4.96 q 0.56,0 0.976,-0.16 0.432,-0.16 0.72,-0.448 0.576,-0.576 0.576,-1.696 V 6.3066672 q 0,-1.152 -0.576,-1.728 -0.576,-0.576 -1.696,-0.576 h -5.504 q -1.12,0 -1.696,0.576 -0.576,0.576 -0.576,1.728 z m 33.93599,-6.30399996 -7.168,10.23999976 v 8.96 h -4.096 v -8.96 l -7.168,-10.23999976 h 4.992 l 4.224,6.01599996 4.224,-6.01599996 h 4.992 z"
     id="text4"
     style="font-size:32px;line-height:0.1;font-family:Gayatri;-inkscape-font-specification:Gayatri;fill:#ffffff"
     aria-label="GAMEBOY" />
  <path
     d="m 11.968024,28.4 h 4.512 q 0.976,0 1.504,-0.384 0.512,-0.416 0.512,-1.152 v -0.528 q 0,-0.736 -0.512,-1.152 -0.528,-0.384 -1.504,-0.384 h -6.08 l -3.9999996,-4 H 17.024024 q 5.568,0 5.568,4.544 v 2.448 q 0,2.288 -1.408,3.456 -1.392,1.152 -4.16,1.152 h -4.512 q -0.976,0 -1.504,0.384 -0.24,0.192 -0.384,0.48 -0.128,0.272 -0.128,0.64 V 36 h 11.584 v 4 H 6.4000244 v -7.024 q 0,-1.152 0.352,-2 0.352,-0.848 1.056,-1.424 1.392,-1.152 4.1599996,-1.152 z M 48.01609,20.8 q 2.8,0 4.192,1.152 1.376,1.136 1.376,3.424 v 2.416 q 0,2.32 -1.376,3.456 -1.392,1.152 -4.192,1.152 h -6.528 V 40 h -4.096 V 20.8 Z m 1.472,6.064 v -0.496 q 0,-0.784 -0.512,-1.152 -0.48,-0.384 -1.504,-0.384 V 24.8 h -5.984 v 6.416 l 2.784,-2.816 h 3.2 q 1.024,0 1.504,-0.384 0.512,-0.368 0.512,-1.152 z M 59.680106,20.8 v 12.96 q 0,1.232 0.48,1.76 0.528,0.48 1.76,0.48 h 6.208 v 4 h -6.496 q -1.648,0 -2.8,-0.336 -1.136,-0.352 -1.84,-1.072 -0.72,-0.704 -1.072,-1.856 -0.336,-1.168 -0.336,-2.784 V 20.8 Z M 83.392113,36 h -8.096 l -1.456,4 h -4.352 l 6.976,-19.2 h 5.728 l 7.008,19.2 h -4.352 l -1.456,-4 z m -4.88,-4 h 3.424 l -2.592,-7.104 -3.6,9.872 2.768,-2.768 z m 28.720007,-11.2 -7.168,10.24 V 40 h -4.095995 v -8.96 l -7.168,-10.24 h 4.992 l 4.224,6.016 4.223995,-6.016 h 4.992 z m 6.25599,0 h 10.176 v 4 h -9.888 q -1.248,0 -1.728,0.48 -0.272,0.272 -0.384,0.704 -0.096,0.432 -0.096,1.056 v 4.176 l 2.816,-2.816 h 9.28 v 4 h -12.096 v 1.36 q 0,0.624 0.096,1.056 0.112,0.432 0.384,0.704 0.48,0.48 1.728,0.48 h 9.888 v 4 h -10.176 q -1.648,0 -2.8,-0.336 -1.136,-0.352 -1.84,-1.072 -0.704,-0.704 -1.04,-1.856 -0.336,-1.168 -0.336,-2.784 v -7.136 q 0,-3.264 1.376,-4.64 0.704,-0.704 1.84,-1.056 1.152,-0.352 2.8,-0.32 z m 22.80001,0 q 2.8,0 4.192,1.152 1.376,1.136 1.376,3.424 v 2.208 l -2.816,2.816 h 2.816 V 40 h -4.096 v -7.6 h -8 V 40 h -4.096 V 20.8 Z m 1.472,6.064 v -0.496 q 0,-0.784 -0.512,-1.152 -0.48,-0.384 -1.504,-0.384 V 24.8 h -5.984 v 6.416 l 2.816,-2.816 h 3.168 q 1.024,0 1.504,-0.384 0.512,-0.368 0.512,-1.152 z m 11.63202,5.536 q -2.768,0 -4.16,-1.152 -1.376,-1.136 -1.376,-3.456 v -2.416 q 0,-4.576 5.536,-4.576 h 10.144 v 4 h -9.568 q -1.024,0 -1.504,0.384 -0.512,0.368 -0.512,1.152 v 0.528 q 0,0.784 0.512,1.152 0.48,0.384 1.504,0.384 h 4.512 q 2.8,0 4.192,1.152 1.376,1.184 1.376,3.424 v 2.448 q 0,4.576 -5.568,4.576 h -10.624 l 4,-4 h 6.08 q 1.024,0 1.504,-0.384 0.512,-0.368 0.512,-1.12 v -0.592 q 0,-0.752 -0.512,-1.12 -0.48,-0.384 -1.504,-0.384 z"
     id="text5"
     style="font-size:32px;line-height:0.1;font-family:Gayatri;-inkscape-font-specification:Gayatri;fill:#ffffff"
     aria-label=" 2  PLAYERS" />
</svg>
