<?xml version="1.0" encoding="UTF-8" standalone="no"?>
<svg
   version="1.1"
   id="vertical"
   x="0px"
   y="0px"
   viewBox="0 0 240 40"
   sodipodi:docname="gbch.svg"
   inkscape:version="1.4-beta (62f545ba5e, 2024-04-22)"
   width="240"
   height="40"
   xmlns:inkscape="http://www.inkscape.org/namespaces/inkscape"
   xmlns:sodipodi="http://sodipodi.sourceforge.net/DTD/sodipodi-0.dtd"
   xmlns="http://www.w3.org/2000/svg"
   xmlns:svg="http://www.w3.org/2000/svg">
  <defs
     id="defs2" />
  <sodipodi:namedview
     id="namedview2"
     pagecolor="#ffffff"
     bordercolor="#000000"
     borderopacity="0.25"
     inkscape:showpageshadow="2"
     inkscape:pageopacity="0.0"
     inkscape:pagecheckerboard="true"
     inkscape:deskcolor="#d1d1d1"
     inkscape:zoom="8.96"
     inkscape:cx="63.113839"
     inkscape:cy="17.466518"
     inkscape:window-width="1920"
     inkscape:window-height="1009"
     inkscape:window-x="-8"
     inkscape:window-y="-8"
     inkscape:window-maximized="1"
     inkscape:current-layer="vertical" />
  <path
     d="m 6.4000244,20.8 h 4.0959996 v 10.416 l 2.816,-2.816 h 5.184 v -7.6 h 4.096 V 40 h -4.096 v -7.6 h -8 V 40 H 6.4000244 V 20.8 Z M 37.856041,36 h -8.096 l -1.456,4 h -4.352 l 6.976,-19.2 h 5.728 l 7.008,19.2 h -4.352 l -1.456,-4 z m -4.88,-4 h 3.424 l -2.592,-7.104 -3.6,9.872 2.768,-2.768 z M 49.920053,20.8 h 10.176 l -4,4 h -5.792 q -1.168,0 -1.728,0.608 -0.576,0.576 -0.576,1.728 v 6.56 q 0,1.12 0.576,1.696 0.288,0.288 0.72,0.448 0.432,0.16 1.008,0.16 h 9.792 v 4 h -10.176 q -1.456,-0.032 -2.544,-0.432 -1.072,-0.4 -1.872,-1.2 -0.8,-0.768 -1.184,-1.856 -0.384,-1.104 -0.416,-2.56 v -7.168 q 0.032,-1.424 0.416,-2.512 0.384,-1.104 1.184,-1.872 0.8,-0.8 1.872,-1.184 1.088,-0.384 2.544,-0.416 z m 24.272016,0 h 4.096 v 6.784 l -2.816,2.816 h 2.816 V 40 h -4.096 v -7.6 h -8 V 40 h -4.096 V 20.8 h 4.096 v 10.416 l 2.816,-2.816 h 3.168 q 0.976,0 1.504,-0.384 0.512,-0.416 0.512,-1.152 z m 11.632017,11.6 q -2.768,0 -4.16,-1.152 -1.376,-1.136 -1.376,-3.456 v -2.416 q 0,-4.576 5.536,-4.576 h 10.144 v 4 h -9.568 q -1.024,0 -1.504,0.384 -0.512,0.368 -0.512,1.152 v 0.528 q 0,0.784 0.512,1.152 0.48,0.384 1.504,0.384 h 4.512 q 2.8,0 4.192,1.152 1.376,1.184 1.376,3.424 v 2.448 q 0,4.576 -5.568,4.576 h -10.624 l 4,-4 h 6.08 q 1.024,0 1.504,-0.384 0.512,-0.368 0.512,-1.12 v -0.592 q 0,-0.752 -0.512,-1.12 -0.48,-0.384 -1.504,-0.384 z"
     id="text62"
     style="font-size:32px;line-height:0.1;font-family:Gayatri;-inkscape-font-specification:Gayatri;fill:#ffffff"
     aria-label=" HACKS" />
  <path
     d="M 5.984,7.6293945e-7 H 16.192 V 4.0000008 H 6.4 q -1.168,0 -1.728,0.608 -0.576,0.576 -0.576,1.728 v 6.5600002 q 0,1.12 0.576,1.696 0.288,0.288 0.72,0.448 0.432,0.16 1.008,0.16 h 5.696 v -3.6 H 6.752 l 4,-4.0000002 h 5.44 V 19.200001 H 12.288 5.984 q -2.848,-0.048 -4.384,-1.632 -0.8,-0.768 -1.184,-1.856 -0.384,-1.104 -0.416,-2.56 V 5.9840008 q 0.032,-1.424 0.416,-2.512 0.384,-1.104 1.184,-1.872 Q 2.368,0.80000076 3.456,0.41600076 4.56,0.03200076 5.984,7.6293945e-7 Z M 30.288017,11.600001 h -8 v 6.416 l 2.816,-2.816 h 3.168 q 0.976,0 1.504,-0.384 0.512,-0.416 0.512,-1.12 z M 18.192017,7.6293945e-7 h 10.624 q 5.568,0 5.568,4.57600003706055 v 2.24 l -2.816,2.784 h 2.816 v 5.0240002 q 0,4.576 -5.568,4.576 h -10.624 z M 22.288017,4.0000008 v 6.4160002 l 2.816,-2.8160002 h 3.168 q 0.976,0 1.504,-0.384 0.512,-0.416 0.512,-1.12 v -0.56 q 0,-0.736 -0.512,-1.152 -0.528,-0.384 -1.504,-0.384 z M 55.200082,7.6293945e-7 h 10.176 l -4,4.00000003706055 h -5.792 q -1.168,0 -1.728,0.608 -0.576,0.576 -0.576,1.728 v 6.5600002 q 0,1.12 0.576,1.696 0.288,0.288 0.72,0.448 0.432,0.16 1.008,0.16 h 9.792 v 4 h -10.176 q -1.456,-0.032 -2.544,-0.432 -1.072,-0.4 -1.872,-1.2 -0.8,-0.768 -1.184,-1.856 -0.384,-1.104 -0.416,-2.56 V 5.9840008 q 0.032,-1.424 0.416,-2.512 0.384,-1.104 1.184,-1.872 0.8,-0.80000004 1.872,-1.18400004 1.088,-0.384 2.544,-0.41599999706055 z M 67.376099,5.9840008 q 0,-1.424 0.4,-2.512 0.4,-1.104 1.168,-1.872 0.8,-0.80000004 1.888,-1.18400004 1.104,-0.384 2.528,-0.41599999706055 h 6.272 Q 81.056099,0.03200076 82.144099,0.41600076 q 1.104,0.384 1.872,1.18400004 1.6,1.552 1.6,4.384 v 7.1680002 q 0,2.864 -1.6,4.416 -1.536,1.584 -4.384,1.632 h -6.272 q -2.832,-0.048 -4.416,-1.632 -1.568,-1.568 -1.568,-4.416 z m 4.096,0.32 V 18.016001 l 2.816,-2.816 h 4.96 q 0.56,0 0.976,-0.16 0.432,-0.16 0.72,-0.448 0.576,-0.576 0.576,-1.696 V 6.3040008 q 0,-1.152 -0.576,-1.728 -0.576,-0.576 -1.696,-0.576 h -5.504 q -1.12,0 -1.696,0.576 -0.576,0.576 -0.576,1.728 z M 91.712089,7.6293945e-7 V 12.960001 q 0,1.232 0.48,1.76 0.528,0.48 1.76,0.48 h 6.208001 v 4 h -6.496001 q -1.648,0 -2.8,-0.336 -1.136,-0.352 -1.84,-1.072 -0.72,-0.704 -1.072,-1.856 -0.336,-1.168 -0.336,-2.784 V 7.6293945e-7 Z M 102.1601,5.9840008 q 0,-1.424 0.4,-2.512 0.4,-1.104 1.168,-1.872 0.8,-0.80000004 1.888,-1.18400004 1.104,-0.384 2.528,-0.41599999706055 h 6.272 Q 115.8401,0.03200076 116.9281,0.41600076 q 1.104,0.384 1.872,1.18400004 1.6,1.552 1.6,4.384 v 7.1680002 q 0,2.864 -1.6,4.416 -1.536,1.584 -4.384,1.632 h -6.272 q -2.832,-0.048 -4.416,-1.632 -1.568,-1.568 -1.568,-4.416 z m 4.096,0.32 V 18.016001 l 2.816,-2.816 h 4.96 q 0.56,0 0.976,-0.16 0.432,-0.16 0.72,-0.448 0.576,-0.576 0.576,-1.696 V 6.3040008 q 0,-1.152 -0.576,-1.728 -0.576,-0.576 -1.696,-0.576 h -5.504 q -1.12,0 -1.696,0.576 -0.576,0.576 -0.576,1.728 z M 133.02409,7.6293945e-7 q 2.8,0 4.192,1.15200003706055 1.376,1.136 1.376,3.424 v 2.208 l -2.816,2.816 h 2.816 v 9.6000002 h -4.096 v -7.6 h -8 v 7.6 h -4.096 V 7.6293945e-7 Z M 134.49609,6.0640008 v -0.496 q 0,-0.784 -0.512,-1.152 -0.48,-0.384 -1.504,-0.384 v -0.032 h -5.984 v 6.4160002 l 2.816,-2.8160002 h 3.168 q 1.024,0 1.504,-0.384 0.512,-0.368 0.512,-1.152 z"
     id="text63"
     style="font-size:32px;line-height:0.1;font-family:Gayatri;-inkscape-font-specification:Gayatri;fill:#ffffff"
     aria-label="GB  COLOR" />
</svg>
