<?xml version="1.0" encoding="UTF-8" standalone="no"?>
<svg
   version="1.1"
   id="vertical"
   x="0px"
   y="0px"
   viewBox="0 0 240 40"
   sodipodi:docname="library.svg"
   inkscape:version="1.4-beta (62f545ba5e, 2024-04-22)"
   width="240"
   height="40"
   xmlns:inkscape="http://www.inkscape.org/namespaces/inkscape"
   xmlns:sodipodi="http://sodipodi.sourceforge.net/DTD/sodipodi-0.dtd"
   xmlns="http://www.w3.org/2000/svg"
   xmlns:svg="http://www.w3.org/2000/svg">
  <defs
     id="defs2" />
  <sodipodi:namedview
     id="namedview2"
     pagecolor="#ffffff"
     bordercolor="#000000"
     borderopacity="0.25"
     inkscape:showpageshadow="2"
     inkscape:pageopacity="0.0"
     inkscape:pagecheckerboard="true"
     inkscape:deskcolor="#d1d1d1"
     inkscape:zoom="8.96"
     inkscape:cx="54.185268"
     inkscape:cy="20.033482"
     inkscape:window-width="1920"
     inkscape:window-height="1009"
     inkscape:window-x="-8"
     inkscape:window-y="-8"
     inkscape:window-maximized="1"
     inkscape:current-layer="vertical"
     showgrid="false" />
  <text
     xml:space="preserve"
     style="font-size:32px;line-height:0.1;font-family:Gayatri;-inkscape-font-specification:Gayatri;text-align:start;writing-mode:lr-tb;direction:ltr;text-anchor:start;fill:#ffffff"
     x="172.65625"
     y="35.825893"
     id="text2"><tspan
       sodipodi:role="line"
       id="tspan2"
       x="172.65625"
       y="35.825893" /></text>
  <path
     d="m 4.096,20.8 v 12.96 q 0,1.232 0.48,1.76 Q 5.104,36 6.336,36 h 6.208 v 4 H 6.048 Q 4.4,40 3.248,39.664 2.112,39.312 1.408,38.592 0.688,37.888 0.336,36.736 0,35.568 0,33.952 V 20.8 Z m 10.448006,0 h 4.096 V 40 h -4.096 V 20.8 Z m 18.192009,11.6 h -8 v 6.416 l 2.816,-2.816 h 3.168 q 0.976,0 1.504,-0.384 0.512,-0.416 0.512,-1.12 z m -12.096,-11.6 h 10.624 q 5.568,0 5.568,4.576 v 2.24 l -2.816,2.784 h 2.816 v 5.024 q 0,4.576 -5.568,4.576 h -10.624 z m 4.096,4 v 6.416 l 2.816,-2.816 h 3.168 q 0.976,0 1.504,-0.384 0.512,-0.416 0.512,-1.12 v -0.56 q 0,-0.736 -0.512,-1.152 -0.528,-0.384 -1.504,-0.384 z m 24.720016,-4 q 2.8,0 4.192,1.152 1.376,1.136 1.376,3.424 v 2.208 l -2.816,2.816 h 2.816 V 40 h -4.096 v -7.6 h -8 V 40 h -4.096 V 20.8 Z m 1.472,6.064 v -0.496 q 0,-0.784 -0.512,-1.152 -0.48,-0.384 -1.504,-0.384 V 24.8 h -5.984 v 6.416 l 2.816,-2.816 h 3.168 q 1.024,0 1.504,-0.384 0.512,-0.368 0.512,-1.152 z M 70.288048,36 h -8.096 l -1.456,4 h -4.352 l 6.976,-19.2 h 5.728 l 7.008,19.2 h -4.352 l -1.456,-4 z m -4.88,-4 h 3.424 l -2.592,-7.104 -3.6,9.872 2.768,-2.768 z M 86.96006,20.8 q 2.8,0 4.192,1.152 1.376,1.136 1.376,3.424 v 2.208 l -2.816,2.816 h 2.816 V 40 h -4.096 v -7.6 h -8 V 40 h -4.096 V 20.8 Z m 1.472,6.064 v -0.496 q 0,-0.784 -0.512,-1.152 -0.48,-0.384 -1.504,-0.384 V 24.8 h -5.984 v 6.416 l 2.816,-2.816 h 3.168 q 1.024,0 1.504,-0.384 0.512,-0.368 0.512,-1.152 z m 23.88802,-6.064 -7.168,10.24 V 40 h -4.096 V 31.04 L 93.888076,20.8 h 4.992 l 4.224004,6.016 4.224,-6.016 h 4.992 z"
     id="text3"
     style="font-size:32px;line-height:0.1;font-family:Gayatri;-inkscape-font-specification:Gayatri;fill:#ffffff"
     aria-label="LIBRARY" />
</svg>
