<?xml version="1.0" encoding="UTF-8" standalone="no"?>
<svg
   version="1.1"
   id="vertical"
   x="0px"
   y="0px"
   viewBox="0 0 240 40"
   sodipodi:docname="mame.svg"
   inkscape:version="1.4-beta (62f545ba5e, 2024-04-22)"
   width="240"
   height="40"
   xmlns:inkscape="http://www.inkscape.org/namespaces/inkscape"
   xmlns:sodipodi="http://sodipodi.sourceforge.net/DTD/sodipodi-0.dtd"
   xmlns="http://www.w3.org/2000/svg"
   xmlns:svg="http://www.w3.org/2000/svg">
  <defs
     id="defs2" />
  <sodipodi:namedview
     id="namedview2"
     pagecolor="#ffffff"
     bordercolor="#000000"
     borderopacity="0.25"
     inkscape:showpageshadow="2"
     inkscape:pageopacity="0.0"
     inkscape:pagecheckerboard="true"
     inkscape:deskcolor="#d1d1d1"
     inkscape:zoom="8.96"
     inkscape:cx="105.80357"
     inkscape:cy="20.033482"
     inkscape:window-width="1920"
     inkscape:window-height="1009"
     inkscape:window-x="-8"
     inkscape:window-y="-8"
     inkscape:window-maximized="1"
     inkscape:current-layer="vertical" />
  <path
     d="m 16.352,20.8 h 6.72 V 40 H 18.976 V 25.504 L 13.728,40 H 9.376 L 4.096,25.504 V 40 H 0 V 20.8 h 6.72 l 4.832,13.216 4.8,-13.216 z M 25.072021,36 h 4.096 v 4 h -4.096 v -4 z m 19.360009,0 h -8.096 l -1.456,4 h -4.352 l 6.976,-19.2 h 5.728 l 7.008,19.2 h -4.352 l -1.456,-4 z m -4.88,-4 h 3.424 l -2.592,-7.104 -3.6,9.872 2.768,-2.768 z m 10.928012,4 h 4.096 v 4 h -4.096 V 36 Z M 72.92805,20.8 h 6.72 V 40 h -4.096 V 25.504 L 70.30405,40 h -4.352 l -5.28,-14.496 V 40 h -4.096 V 20.8 h 6.72 l 4.832,13.216 4.8,-13.216 z M 81.648071,36 h 4.096 v 4 h -4.096 V 36 Z M 93.76008,20.8 h 10.176 v 4 h -9.888 q -1.248,0 -1.728,0.48 -0.272,0.272 -0.384,0.704 -0.096,0.432 -0.096,1.056 v 4.176 l 2.816,-2.816 h 9.28 v 4 h -12.096 v 1.36 q 0,0.624 0.096,1.056 0.112,0.432 0.384,0.704 0.48,0.48 1.728,0.48 h 9.888 v 4 h -10.176 q -1.648,0 -2.8,-0.336 -1.136,-0.352 -1.84,-1.072 -0.704,-0.704 -1.04,-1.856 -0.336,-1.168 -0.336,-2.784 v -7.136 q 0,-3.264 1.376,-4.64 0.704,-0.704 1.84,-1.056 1.152,-0.352 2.8,-0.32 z M 105.9361,36 h 4.096 v 4 h -4.096 v -4 z"
     id="text37"
     style="font-size:32px;line-height:0.1;font-family:Gayatri;-inkscape-font-specification:Gayatri;fill:#ffffff"
     aria-label="M.A.M.E." />
</svg>
