<?xml version="1.0" encoding="UTF-8" standalone="no"?>
<svg
   version="1.1"
   id="vertical"
   x="0px"
   y="0px"
   viewBox="0 0 240 40"
   sodipodi:docname="msu-md.svg"
   inkscape:version="1.4-beta (62f545ba5e, 2024-04-22)"
   width="240"
   height="40"
   xmlns:inkscape="http://www.inkscape.org/namespaces/inkscape"
   xmlns:sodipodi="http://sodipodi.sourceforge.net/DTD/sodipodi-0.dtd"
   xmlns="http://www.w3.org/2000/svg"
   xmlns:svg="http://www.w3.org/2000/svg">
  <defs
     id="defs2" />
  <sodipodi:namedview
     id="namedview2"
     pagecolor="#ffffff"
     bordercolor="#000000"
     borderopacity="0.25"
     inkscape:showpageshadow="2"
     inkscape:pageopacity="0.0"
     inkscape:pagecheckerboard="true"
     inkscape:deskcolor="#d1d1d1"
     inkscape:zoom="8.96"
     inkscape:cx="48.939732"
     inkscape:cy="20.479911"
     inkscape:window-width="1920"
     inkscape:window-height="1009"
     inkscape:window-x="-8"
     inkscape:window-y="-8"
     inkscape:window-maximized="1"
     inkscape:current-layer="vertical"
     showgrid="false" />
  <path
     d="m 5.536,11.602667 q -2.768,0 -4.16,-1.152 Q 0,9.3146672 0,6.9946672 v -2.416 Q 0,0.00266724 5.536,0.00266724 H 15.68 V 4.0026672 H 6.112 q -1.024,0 -1.504,0.384 -0.512,0.368 -0.512,1.152 v 0.528 q 0,0.784 0.512,1.152 0.48,0.384 1.504,0.384 h 4.512 q 2.8,0 4.192,1.152 1.376,1.184 1.376,3.4239998 v 2.448 q 0,4.576 -5.568,4.576 H 0 l 4,-4 h 6.08 q 1.024,0 1.504,-0.384 0.512,-0.368 0.512,-1.12 v -0.592 q 0,-0.752 -0.512,-1.12 -0.48,-0.384 -1.504,-0.384 z M 24.208017,0.00266724 h 10.176 V 4.0026672 h -9.888 q -1.248,0 -1.728,0.48 -0.272,0.272 -0.384,0.704 -0.096,0.432 -0.096,1.056 v 4.1759998 l 2.816,-2.8159998 h 9.28 v 3.9999998 h -12.096 v 1.36 q 0,0.624 0.096,1.056 0.112,0.432 0.384,0.704 0.48,0.48 1.728,0.48 h 9.888 v 4 h -10.176 q -1.648,0 -2.8,-0.336 -1.136,-0.352 -1.84,-1.072 -0.704,-0.704 -1.04,-1.856 -0.336,-1.168 -0.336,-2.784 V 6.0186672 q 0,-3.264 1.376,-4.64 0.704,-0.70399996 1.84,-1.05599996 1.152,-0.352 2.8,-0.32 z m 18.160016,0 h 10.208 V 4.0026672 h -9.792 q -1.168,0 -1.728,0.608 -0.576,0.576 -0.576,1.728 v 6.5599998 q 0,1.12 0.576,1.696 0.288,0.288 0.72,0.448 0.432,0.16 1.008,0.16 h 5.696 v -3.6 h -5.344 l 4,-3.9999998 h 5.44 V 19.202667 h -3.904 -6.304 q -2.848,-0.048 -4.384,-1.632 -0.8,-0.768 -1.184,-1.856 -0.384,-1.104 -0.416,-2.56 V 5.9866672 q 0.032,-1.424 0.416,-2.512 0.384,-1.104 1.184,-1.872 0.768,-0.79999996 1.856,-1.18399996 1.104,-0.384 2.528,-0.416 z M 67.84005,15.202667 h -8.096 l -1.456,4 h -4.352 l 6.976,-19.19999976 h 5.728 l 7.008,19.19999976 h -4.352 l -1.456,-4 z m -4.88,-4 h 3.424 l -2.592,-7.1039998 -3.6,9.8719998 2.768,-2.768 z M 92.67211,0.00266724 h 10.208 V 4.0026672 h -9.792 q -1.168,0 -1.728,0.608 -0.576,0.576 -0.576,1.728 v 6.5599998 q 0,1.12 0.576,1.696 0.288,0.288 0.72,0.448 0.432,0.16 1.008,0.16 h 5.696 v -3.6 h -5.344 l 4,-3.9999998 h 5.44 V 19.202667 h -3.904 -6.304 q -2.848,-0.048 -4.384,-1.632 -0.8,-0.768 -1.184,-1.856 -0.384,-1.104 -0.416,-2.56 V 5.9866672 q 0.032,-1.424 0.416,-2.512 0.384,-1.104 1.184,-1.872 0.768,-0.79999996 1.856,-1.18399996 1.104,-0.384 2.528,-0.416 z m 18.22402,0 h 10.176 V 4.0026672 h -9.888 q -1.248,0 -1.728,0.48 -0.272,0.272 -0.384,0.704 -0.096,0.432 -0.096,1.056 v 4.1759998 l 2.816,-2.8159998 h 9.28 v 3.9999998 h -12.096 v 1.36 q 0,0.624 0.096,1.056 0.112,0.432 0.384,0.704 0.48,0.48 1.728,0.48 h 9.888 v 4 h -10.176 q -1.648,0 -2.8,-0.336 -1.136,-0.352 -1.84,-1.072 -0.704,-0.704 -1.04,-1.856 -0.336,-1.168 -0.336,-2.784 V 6.0186672 q 0,-3.264 1.376,-4.64 0.704,-0.70399996 1.84,-1.05599996 1.152,-0.352 2.8,-0.32 z m 24.27201,0 h 4.096 V 19.202667 h -4.928 l -7.168,-12.4799998 V 19.202667 h -4.096 V 0.00266724 h 4.928 l 7.168,12.44799976 V 0.00266724 Z m 12.11202,0 h 10.176 V 4.0026672 h -9.888 q -1.248,0 -1.728,0.48 -0.272,0.272 -0.384,0.704 -0.096,0.432 -0.096,1.056 v 4.1759998 l 2.816,-2.8159998 h 9.28 v 3.9999998 h -12.096 v 1.36 q 0,0.624 0.096,1.056 0.112,0.432 0.384,0.704 0.48,0.48 1.728,0.48 h 9.888 v 4 h -10.176 q -1.648,0 -2.8,-0.336 -1.136,-0.352 -1.84,-1.072 -0.704,-0.704 -1.04,-1.856 -0.336,-1.168 -0.336,-2.784 V 6.0186672 q 0,-3.264 1.376,-4.64 0.704,-0.70399996 1.84,-1.05599996 1.152,-0.352 2.8,-0.32 z M 164.99218,11.602667 q -2.768,0 -4.16,-1.152 -1.376,-1.1359998 -1.376,-3.4559998 v -2.416 q 0,-4.57599996 5.536,-4.57599996 h 10.144 V 4.0026672 h -9.568 q -1.024,0 -1.504,0.384 -0.512,0.368 -0.512,1.152 v 0.528 q 0,0.784 0.512,1.152 0.48,0.384 1.504,0.384 h 4.512 q 2.8,0 4.192,1.152 1.376,1.184 1.376,3.4239998 v 2.448 q 0,4.576 -5.568,4.576 h -10.624 l 4,-4 h 6.08 q 1.024,0 1.504,-0.384 0.512,-0.368 0.512,-1.12 v -0.592 q 0,-0.752 -0.512,-1.12 -0.48,-0.384 -1.504,-0.384 z M 177.64819,0.00266724 h 4.096 V 19.202667 h -4.096 V 0.00266724 Z M 189.2802,11.602667 q -2.768,0 -4.16,-1.152 -1.376,-1.1359998 -1.376,-3.4559998 v -2.416 q 0,-4.57599996 5.536,-4.57599996 h 10.144 V 4.0026672 h -9.568 q -1.024,0 -1.504,0.384 -0.512,0.368 -0.512,1.152 v 0.528 q 0,0.784 0.512,1.152 0.48,0.384 1.504,0.384 h 4.512 q 2.8,0 4.192,1.152 1.376,1.184 1.376,3.4239998 v 2.448 q 0,4.576 -5.568,4.576 h -10.624 l 4,-4 h 6.08 q 1.024,0 1.504,-0.384 0.512,-0.368 0.512,-1.12 v -0.592 q 0,-0.752 -0.512,-1.12 -0.48,-0.384 -1.504,-0.384 z"
     id="text12"
     style="font-size:32px;line-height:0.1;font-family:Gayatri;-inkscape-font-specification:Gayatri;fill:#ffffff"
     aria-label="SEGA  GENESIS" />
  <path
     d="m 22.752024,20.8 h 6.72 V 40 h -4.096 V 25.504 L 20.128024,40 h -4.352 l -5.28,-14.496 V 40 H 6.4000244 V 20.8 h 6.7199996 l 4.832,13.216 4.8,-13.216 z m 14.256022,11.6 q -2.768,0 -4.16,-1.152 -1.376,-1.136 -1.376,-3.456 v -2.416 q 0,-4.576 5.536,-4.576 h 10.144 v 4 h -9.568 q -1.024,0 -1.504,0.384 -0.512,0.368 -0.512,1.152 v 0.528 q 0,0.784 0.512,1.152 0.48,0.384 1.504,0.384 h 4.512 q 2.8,0 4.192,1.152 1.376,1.184 1.376,3.424 v 2.448 q 0,4.576 -5.568,4.576 h -10.624 l 4,-4 h 6.08 q 1.024,0 1.504,-0.384 0.512,-0.368 0.512,-1.12 v -0.592 q 0,-0.752 -0.512,-1.12 -0.48,-0.384 -1.504,-0.384 z m 26.800016,1.296 V 20.8 h 4.096001 v 13.152 q -0.032,1.456 -0.416001,2.56 -0.384,1.088 -1.184,1.856 -1.536,1.584 -4.415999,1.632 h -6.24 q -2.832001,-0.048 -4.416001,-1.632 -1.568,-1.568 -1.568,-4.416 V 20.8 h 4.096001 V 38.816 L 56.576062,36 h 4.928001 q 0.575999,0 1.007999,-0.16 0.432,-0.16 0.72,-0.448 0.576,-0.576 0.576,-1.696 z"
     id="text13"
     style="font-size:32px;line-height:0.1;font-family:Gayatri;-inkscape-font-specification:Gayatri;fill:#ffffff"
     aria-label=" MSU" />
</svg>
