<?xml version="1.0" encoding="UTF-8" standalone="no"?>
<svg
   version="1.1"
   id="vertical"
   x="0px"
   y="0px"
   viewBox="0 0 240 40"
   sodipodi:docname="msx2.svg"
   inkscape:version="1.4-beta (62f545ba5e, 2024-04-22)"
   width="240"
   height="40"
   xmlns:inkscape="http://www.inkscape.org/namespaces/inkscape"
   xmlns:sodipodi="http://sodipodi.sourceforge.net/DTD/sodipodi-0.dtd"
   xmlns="http://www.w3.org/2000/svg"
   xmlns:svg="http://www.w3.org/2000/svg">
  <defs
     id="defs2" />
  <sodipodi:namedview
     id="namedview2"
     pagecolor="#ffffff"
     bordercolor="#000000"
     borderopacity="0.25"
     inkscape:showpageshadow="2"
     inkscape:pageopacity="0.0"
     inkscape:pagecheckerboard="true"
     inkscape:deskcolor="#d1d1d1"
     inkscape:zoom="8.96"
     inkscape:cx="41.238839"
     inkscape:cy="20.479911"
     inkscape:window-width="1920"
     inkscape:window-height="1009"
     inkscape:window-x="-8"
     inkscape:window-y="-8"
     inkscape:window-maximized="1"
     inkscape:current-layer="vertical"
     showgrid="false" />
  <path
     d="m 16.352,20.8 h 6.72 V 40 H 18.976 V 25.504 L 13.728,40 H 9.376 L 4.096,25.504 V 40 H 0 V 20.8 h 6.72 l 4.832,13.216 4.8,-13.216 z m 14.256021,11.6 q -2.768,0 -4.16,-1.152 -1.376,-1.136 -1.376,-3.456 v -2.416 q 0,-4.576 5.536,-4.576 h 10.144 v 4 h -9.568 q -1.024,0 -1.504,0.384 -0.512,0.368 -0.512,1.152 v 0.528 q 0,0.784 0.512,1.152 0.48,0.384 1.504,0.384 h 4.512 q 2.8,0 4.192,1.152 1.376,1.184 1.376,3.424 v 2.448 q 0,4.576 -5.568,4.576 h -10.624 l 4,-4 h 6.08 q 1.024,0 1.504,-0.384 0.512,-0.368 0.512,-1.12 v -0.592 q 0,-0.752 -0.512,-1.12 -0.48,-0.384 -1.504,-0.384 z m 17.008017,-11.6 4.224,6.016 4.224,-6.016 h 4.992 l -6.72,9.6 6.72,9.6 h -4.992 l -4.224,-6.048 -4.224,6.048 h -4.992 l 6.72,-9.6 -6.72,-9.6 h 4.992 z m 13.679983,7.6 h 12.096 v 4 h -12.096 v -4 z m 19.664008,0 h 4.512 q 0.976,0 1.504,-0.384 0.512,-0.416 0.512,-1.152 v -0.528 q 0,-0.736 -0.512,-1.152 -0.528,-0.384 -1.504,-0.384 h -6.08 l -4,-4 h 10.624 q 5.568,0 5.568,4.544 v 2.448 q 0,2.288 -1.408,3.456 -1.392,1.152 -4.16,1.152 h -4.512 q -0.976,0 -1.504,0.384 -0.24,0.192 -0.384,0.48 -0.128,0.272 -0.128,0.64 V 36 h 11.584 v 4 h -15.68 v -7.024 q 0,-1.152 0.352,-2 0.352,-0.848 1.056,-1.424 1.392,-1.152 4.16,-1.152 z"
     id="text14"
     style="font-size:32px;line-height:0.1;font-family:Gayatri;-inkscape-font-specification:Gayatri;fill:#ffffff"
     aria-label="MSX-2" />
</svg>
