<?xml version="1.0" encoding="UTF-8" standalone="no"?>
<svg
   version="1.1"
   id="vertical"
   x="0px"
   y="0px"
   viewBox="0 0 240 40"
   sodipodi:docname="namco2x6.svg"
   inkscape:version="1.4-beta (62f545ba5e, 2024-04-22)"
   width="240"
   height="40"
   xmlns:inkscape="http://www.inkscape.org/namespaces/inkscape"
   xmlns:sodipodi="http://sodipodi.sourceforge.net/DTD/sodipodi-0.dtd"
   xmlns="http://www.w3.org/2000/svg"
   xmlns:svg="http://www.w3.org/2000/svg">
  <defs
     id="defs2" />
  <sodipodi:namedview
     id="namedview2"
     pagecolor="#ffffff"
     bordercolor="#000000"
     borderopacity="0.25"
     inkscape:showpageshadow="2"
     inkscape:pageopacity="0.0"
     inkscape:pagecheckerboard="true"
     inkscape:deskcolor="#d1d1d1"
     inkscape:zoom="8.96"
     inkscape:cx="133.20312"
     inkscape:cy="20.033482"
     inkscape:window-width="1920"
     inkscape:window-height="1009"
     inkscape:window-x="-8"
     inkscape:window-y="-8"
     inkscape:window-maximized="1"
     inkscape:current-layer="vertical"
     showgrid="false" />
  <path
     d="m 12.096,20.8 h 4.096 V 40 H 11.264 L 4.096,27.52 V 40 H 0 V 20.8 h 4.928 l 7.168,12.448 V 20.8 Z M 31.456017,36 h -8.096 l -1.456,4 h -4.352 l 6.976,-19.2 h 5.728 l 7.008,19.2 h -4.352 l -1.456,-4 z m -4.88,-4 h 3.424 l -2.592,-7.104 -3.6,9.872 2.768,-2.768 z M 53.856028,20.8 h 6.72 V 40 h -4.096 V 25.504 L 51.232028,40 h -4.352 l -5.28,-14.496 V 40 h -4.096 V 20.8 h 6.72 l 4.832,13.216 4.8,-13.216 z m 14.736022,0 h 10.176 l -4,4 h -5.792 q -1.168,0 -1.728,0.608 -0.576,0.576 -0.576,1.728 v 6.56 q 0,1.12 0.576,1.696 0.288,0.288 0.72,0.448 0.432,0.16 1.008,0.16 h 9.792 v 4 h -10.176 q -1.456,-0.032 -2.544,-0.432 -1.072,-0.4 -1.872,-1.2 -0.8,-0.768 -1.184,-1.856 -0.384,-1.104 -0.416,-2.56 v -7.168 q 0.032,-1.424 0.416,-2.512 0.384,-1.104 1.184,-1.872 0.8,-0.8 1.872,-1.184 1.088,-0.384 2.544,-0.416 z m 12.176016,5.984 q 0,-1.424 0.4,-2.512 0.4,-1.104 1.168,-1.872 0.8,-0.8 1.888,-1.184 1.104,-0.384 2.528,-0.416 h 6.272 q 1.424,0.032 2.512,0.416 1.104,0.384 1.872,1.184 1.6,1.552 1.6,4.384 v 7.168 q 0,2.864 -1.6,4.416 -1.536,1.584 -4.384,1.632 h -6.272 q -2.832,-0.048 -4.416,-1.632 -1.568,-1.568 -1.568,-4.416 z m 4.096,0.32 v 11.712 l 2.816,-2.816 h 4.96 q 0.56,0 0.976,-0.16 0.432,-0.16 0.72,-0.448 0.576,-0.576 0.576,-1.696 v -6.592 q 0,-1.152 -0.576,-1.728 -0.576,-0.576 -1.696,-0.576 h -5.504 q -1.12,0 -1.696,0.576 -0.576,0.576 -0.576,1.728 z M 119.37611,28.4 h 4.512 q 0.976,0 1.504,-0.384 0.512,-0.416 0.512,-1.152 v -0.528 q 0,-0.736 -0.512,-1.152 -0.528,-0.384 -1.504,-0.384 h -6.08 l -4,-4 h 10.624 q 5.568,0 5.568,4.544 v 2.448 q 0,2.288 -1.408,3.456 -1.392,1.152 -4.16,1.152 h -4.512 q -0.976,0 -1.504,0.384 -0.24,0.192 -0.384,0.48 -0.128,0.272 -0.128,0.64 V 36 h 11.584 v 4 h -15.68 v -7.024 q 0,-1.152 0.352,-2 0.352,-0.848 1.056,-1.424 1.392,-1.152 4.16,-1.152 z m 16.97601,-7.6 4.224,6.016 4.224,-6.016 h 4.992 l -6.72,9.6 6.72,9.6 h -4.992 l -4.224,-6.048 -4.224,6.048 h -4.992 l 6.72,-9.6 -6.72,-9.6 h 4.992 z M 155.6001,40 q -5.568,0 -5.568,-4.544 v -10.08 q 0,-2.256 1.408,-3.424 1.392,-1.152 4.16,-1.152 h 10.624 l -4,4 h -6.08 q -0.976,0 -1.504,0.384 -0.24,0.192 -0.384,0.48 -0.128,0.288 -0.128,0.672 V 28.4 h 6.528 q 2.768,0 4.16,1.152 0.704,0.576 1.056,1.424 0.352,0.848 0.352,2 v 2.48 q 0,4.544 -5.568,4.544 z m -1.472,-7.6 v 2.096 q 0,0.368 0.128,0.656 0.144,0.272 0.384,0.464 0.528,0.384 1.504,0.384 h 4 q 0.976,0 1.504,-0.384 0.512,-0.416 0.512,-1.12 v -0.592 q 0,-0.704 -0.512,-1.12 -0.528,-0.384 -1.504,-0.384 z"
     id="text8"
     style="font-size:32px;line-height:0.1;font-family:Gayatri;-inkscape-font-specification:Gayatri;fill:#ffffff"
     aria-label="NAMCO  2X6" />
</svg>
