<?xml version="1.0" encoding="UTF-8" standalone="no"?>
<svg
   version="1.1"
   id="vertical"
   x="0px"
   y="0px"
   viewBox="0 0 240 40"
   sodipodi:docname="now-playing.svg"
   inkscape:version="1.4-beta (62f545ba5e, 2024-04-22)"
   width="240"
   height="40"
   xmlns:inkscape="http://www.inkscape.org/namespaces/inkscape"
   xmlns:sodipodi="http://sodipodi.sourceforge.net/DTD/sodipodi-0.dtd"
   xmlns="http://www.w3.org/2000/svg"
   xmlns:svg="http://www.w3.org/2000/svg">
  <defs
     id="defs2" />
  <sodipodi:namedview
     id="namedview2"
     pagecolor="#ffffff"
     bordercolor="#000000"
     borderopacity="0.25"
     inkscape:showpageshadow="2"
     inkscape:pageopacity="0.0"
     inkscape:pagecheckerboard="true"
     inkscape:deskcolor="#d1d1d1"
     inkscape:zoom="8.96"
     inkscape:cx="55.691964"
     inkscape:cy="20.033482"
     inkscape:window-width="1920"
     inkscape:window-height="1009"
     inkscape:window-x="-8"
     inkscape:window-y="-8"
     inkscape:window-maximized="1"
     inkscape:current-layer="vertical"
     showgrid="false" />
  <path
     d="m 12.096,20.8 h 4.096 V 40 H 11.264 L 4.096,27.52 V 40 H 0 V 20.8 h 4.928 l 7.168,12.448 V 20.8 Z m 6.096017,5.984 q 0,-1.424 0.4,-2.512 0.4,-1.104 1.168,-1.872 0.8,-0.8 1.888,-1.184 1.104,-0.384 2.528,-0.416 h 6.272 q 1.424,0.032 2.512,0.416 1.104,0.384 1.872,1.184 1.6,1.552 1.6,4.384 v 7.168 q 0,2.864 -1.6,4.416 -1.536,1.584 -4.384,1.632 h -6.272 q -2.832,-0.048 -4.416,-1.632 -1.568,-1.568 -1.568,-4.416 z m 4.096,0.32 v 11.712 l 2.816,-2.816 h 4.96 q 0.56,0 0.976,-0.16 0.432,-0.16 0.72,-0.448 0.576,-0.576 0.576,-1.696 v -6.592 q 0,-1.152 -0.576,-1.728 -0.576,-0.576 -1.696,-0.576 h -5.504 q -1.12,0 -1.696,0.576 -0.576,0.576 -0.576,1.728 z m 31.82399,-6.304 3.488,12.992 3.456,-12.992 h 4.256 l -5.152,19.2 h -5.152 l -3.456,-12.992 -3.488,12.992 h -5.152 l -5.12,-19.2 h 4.224 l 3.488,12.992 3.456,-12.992 h 5.152 z m 34.864044,0 q 2.8,0 4.192,1.152 1.376,1.136 1.376,3.424 v 2.416 q 0,2.32 -1.376,3.456 -1.392,1.152 -4.192,1.152 h -6.528 V 40 h -4.096 V 20.8 Z m 1.472,6.064 v -0.496 q 0,-0.784 -0.512,-1.152 -0.48,-0.384 -1.504,-0.384 V 24.8 h -5.984 v 6.416 l 2.784,-2.816 h 3.2 q 1.024,0 1.504,-0.384 0.512,-0.368 0.512,-1.152 z M 100.64007,20.8 v 12.96 q 0,1.232 0.48,1.76 0.528,0.48 1.76,0.48 h 6.208 v 4 h -6.496 q -1.648,0 -2.800003,-0.336 -1.136,-0.352 -1.84,-1.072 -0.72,-0.704 -1.072,-1.856 -0.336,-1.168 -0.336,-2.784 V 20.8 Z m 23.712,15.2 h -8.096 l -1.456,4 h -4.352 l 6.976,-19.2 h 5.728 l 7.008,19.2 h -4.352 l -1.456,-4 z m -4.88,-4 h 3.424 l -2.592,-7.104 -3.6,9.872 2.768,-2.768 z m 28.72002,-11.2 -7.168,10.24 V 40 h -4.096 v -8.96 l -7.168,-10.24 h 4.992 l 4.224,6.016 4.224,-6.016 h 4.992 z m 0.23998,0 h 4.096 V 40 h -4.096 V 20.8 Z m 18.19201,0 h 4.096 V 40 h -4.928 l -7.168,-12.48 V 40 h -4.096 V 20.8 h 4.928 l 7.168,12.448 V 20.8 Z m 12.08001,0 h 10.208 v 4 h -9.792 q -1.168,0 -1.728,0.608 -0.576,0.576 -0.576,1.728 v 6.56 q 0,1.12 0.576,1.696 0.288,0.288 0.72,0.448 0.432,0.16 1.008,0.16 h 5.696 v -3.6 h -5.344 l 4,-4 h 5.44 V 40 h -3.904 -6.304 q -2.848,-0.048 -4.384,-1.632 -0.8,-0.768 -1.184,-1.856 -0.384,-1.104 -0.416,-2.56 v -7.168 q 0.032,-1.424 0.416,-2.512 0.384,-1.104 1.184,-1.872 0.768,-0.8 1.856,-1.184 1.104,-0.384 2.528,-0.416 z M 190.91211,36 h 4.096 v 4 h -4.096 v -4 z m 6.09601,0 h 4.096 v 4 h -4.096 v -4 z"
     id="text9"
     style="font-size:32px;line-height:0.1;font-family:Gayatri;-inkscape-font-specification:Gayatri;fill:#ffffff"
     aria-label="NOW  PLAYING.." />
</svg>
