<?xml version="1.0" encoding="UTF-8" standalone="no"?>
<svg
   version="1.1"
   id="vertical"
   x="0px"
   y="0px"
   viewBox="0 0 240 40"
   sodipodi:docname="plugnplay.svg"
   inkscape:version="1.4-beta (62f545ba5e, 2024-04-22)"
   width="240"
   height="40"
   xmlns:inkscape="http://www.inkscape.org/namespaces/inkscape"
   xmlns:sodipodi="http://sodipodi.sourceforge.net/DTD/sodipodi-0.dtd"
   xmlns="http://www.w3.org/2000/svg"
   xmlns:svg="http://www.w3.org/2000/svg">
  <defs
     id="defs2" />
  <sodipodi:namedview
     id="namedview2"
     pagecolor="#ffffff"
     bordercolor="#000000"
     borderopacity="0.25"
     inkscape:showpageshadow="2"
     inkscape:pageopacity="0.0"
     inkscape:pagecheckerboard="true"
     inkscape:deskcolor="#d1d1d1"
     inkscape:zoom="8.96"
     inkscape:cx="102.95759"
     inkscape:cy="20.033482"
     inkscape:window-width="1920"
     inkscape:window-height="1009"
     inkscape:window-x="-8"
     inkscape:window-y="-8"
     inkscape:window-maximized="1"
     inkscape:current-layer="vertical" />
  <path
     d="m 16.352,20.8 h 6.72 V 40 H 18.976 V 25.504 L 13.728,40 H 9.376 L 4.096,25.504 V 40 H 0 V 20.8 h 6.72 l 4.832,13.216 4.8,-13.216 z m 14.256021,11.6 q -2.768,0 -4.16,-1.152 -1.376,-1.136 -1.376,-3.456 v -2.416 q 0,-4.576 5.536,-4.576 h 10.144 v 4 h -9.568 q -1.024,0 -1.504,0.384 -0.512,0.368 -0.512,1.152 v 0.528 q 0,0.784 0.512,1.152 0.48,0.384 1.504,0.384 h 4.512 q 2.8,0 4.192,1.152 1.376,1.184 1.376,3.424 v 2.448 q 0,4.576 -5.568,4.576 h -10.624 l 4,-4 h 6.08 q 1.024,0 1.504,-0.384 0.512,-0.368 0.512,-1.12 v -0.592 q 0,-0.752 -0.512,-1.12 -0.48,-0.384 -1.504,-0.384 z m 12.656017,-4 h 12.096 v 4 h -12.096 v -4 z M 57.360046,40 V 20.8 h 10.176 q 1.424,0.032 2.512,0.416 1.104,0.384 1.904,1.184 1.6,1.552 1.6,4.384 v 7.168 q 0,2.864 -1.6,4.416 -1.584,1.584 -4.416,1.632 z m 4.096,-15.2 v 14.016 l 2.816,-2.816 h 2.848 q 0.576,0 1.008,-0.16 0.432,-0.16 0.72,-0.448 0.288,-0.288 0.448,-0.704 0.16,-0.416 0.16,-0.992 v -6.56 q 0,-1.12 -0.608,-1.728 -0.56,-0.608 -1.728,-0.608 z m 14.096017,1.984 q 0,-1.424 0.4,-2.512 0.4,-1.104 1.168,-1.872 0.8,-0.8 1.888,-1.184 1.104,-0.384 2.528,-0.416 h 6.272 q 1.424,0.032 2.512,0.416 1.104,0.384 1.872,1.184 1.6,1.552 1.6,4.384 v 7.168 q 0,2.864 -1.6,4.416 -1.536,1.584 -4.384,1.632 h -6.272 q -2.832,-0.048 -4.416,-1.632 -1.568,-1.568 -1.568,-4.416 z m 4.096,0.32 v 11.712 l 2.816,-2.816 h 4.96 q 0.56,0 0.976,-0.16 0.432,-0.16 0.72,-0.448 0.576,-0.576 0.576,-1.696 v -6.592 q 0,-1.152 -0.576,-1.728 -0.576,-0.576 -1.696,-0.576 h -5.504 q -1.12,0 -1.696,0.576 -0.576,0.576 -0.576,1.728 z M 101.32805,32.4 q -2.767997,0 -4.159997,-1.152 -1.376,-1.136 -1.376,-3.456 v -2.416 q 0,-4.576 5.535997,-4.576 h 10.144 v 4 h -9.568 q -1.024,0 -1.504,0.384 -0.511997,0.368 -0.511997,1.152 v 0.528 q 0,0.784 0.511997,1.152 0.48,0.384 1.504,0.384 h 4.512 q 2.8,0 4.192,1.152 1.376,1.184 1.376,3.424 v 2.448 q 0,4.576 -5.568,4.576 H 95.792053 l 4,-4 h 6.079997 q 1.024,0 1.504,-0.384 0.512,-0.368 0.512,-1.12 v -0.592 q 0,-0.752 -0.512,-1.12 -0.48,-0.384 -1.504,-0.384 z"
     id="text4"
     style="font-size:32px;line-height:0.1;font-family:Gayatri;-inkscape-font-specification:Gayatri;fill:#ffffff"
     aria-label="MS-DOS" />
</svg>
