<?xml version="1.0" encoding="UTF-8" standalone="no"?>
<svg
   version="1.1"
   id="vertical"
   x="0px"
   y="0px"
   viewBox="0 0 240 40"
   sodipodi:docname="psx.svg"
   inkscape:version="1.4-beta (62f545ba5e, 2024-04-22)"
   width="240"
   height="40"
   xmlns:inkscape="http://www.inkscape.org/namespaces/inkscape"
   xmlns:sodipodi="http://sodipodi.sourceforge.net/DTD/sodipodi-0.dtd"
   xmlns="http://www.w3.org/2000/svg"
   xmlns:svg="http://www.w3.org/2000/svg">
  <defs
     id="defs2" />
  <sodipodi:namedview
     id="namedview2"
     pagecolor="#ffffff"
     bordercolor="#000000"
     borderopacity="0.25"
     inkscape:showpageshadow="2"
     inkscape:pageopacity="0.0"
     inkscape:pagecheckerboard="true"
     inkscape:deskcolor="#d1d1d1"
     inkscape:zoom="8.96"
     inkscape:cx="152.67857"
     inkscape:cy="20.033482"
     inkscape:window-width="1920"
     inkscape:window-height="1009"
     inkscape:window-x="-8"
     inkscape:window-y="-8"
     inkscape:window-maximized="1"
     inkscape:current-layer="vertical" />
  <path
     d="m 10.624,20.8 q 2.8,0 4.192,1.152 1.376,1.136 1.376,3.424 v 2.416 q 0,2.32 -1.376,3.456 Q 13.424,32.4 10.624,32.4 H 4.096 V 40 H 0 V 20.8 Z m 1.472,6.064 v -0.496 q 0,-0.784 -0.512,-1.152 -0.48,-0.384 -1.504,-0.384 V 24.8 H 4.096 v 6.416 L 6.88,28.4 h 3.2 q 1.024,0 1.504,-0.384 0.512,-0.368 0.512,-1.152 z M 22.288016,20.8 v 12.96 q 0,1.232 0.48,1.76 0.528,0.48 1.76,0.48 h 6.208 v 4 h -6.496 q -1.648,0 -2.8,-0.336 -1.136,-0.352 -1.84,-1.072 -0.72,-0.704 -1.072,-1.856 -0.336,-1.168 -0.336,-2.784 V 20.8 Z M 46.000023,36 h -8.096 l -1.456,4 h -4.352 l 6.976,-19.2 h 5.728 l 7.008,19.2 h -4.352 z m -4.88,-4 h 3.424 l -2.592,-7.104 -3.6,9.872 z M 69.84003,20.8 62.672034,31.04 V 40 h -4.096 v -8.96 l -7.168,-10.24 h 4.992 l 4.224,6.016 4.223996,-6.016 z m 5.77599,11.6 q -2.768,0 -4.16,-1.152 -1.376,-1.136 -1.376,-3.456 v -2.416 q 0,-4.576 5.536,-4.576 h 10.144 v 4 h -9.568 q -1.024,0 -1.504,0.384 -0.512,0.368 -0.512,1.152 v 0.528 q 0,0.784 0.512,1.152 0.48,0.384 1.504,0.384 h 4.512 q 2.8,0 4.192,1.152 1.376,1.184 1.376,3.424 v 2.448 q 0,4.576 -5.568,4.576 h -10.624 l 4,-4 h 6.08 q 1.024,0 1.504,-0.384 0.512,-0.368 0.512,-1.12 v -0.592 q 0,-0.752 -0.512,-1.12 -0.48,-0.384 -1.504,-0.384 z M 92.27203,20.8 h 12.192 v 4 h -6.048 V 40 h -4.096 V 24.8 h -6.048 z M 119.72805,36 h -8.096 l -1.456,4 h -4.352 l 6.976,-19.2 h 5.728 l 7.008,19.2 h -4.352 z m -4.88,-4 h 3.424 l -2.592,-7.104 -3.6,9.872 z m 14.92801,-11.2 h 12.192 v 4 h -6.048 V 40 h -4.096 V 24.8 h -6.048 z m 14.19202,0 h 4.096 V 40 h -4.096 z m 6.09601,5.984 q 0,-1.424 0.4,-2.512 0.4,-1.104 1.168,-1.872 0.8,-0.8 1.888,-1.184 1.104,-0.384 2.528,-0.416 h 6.272 q 1.424,0.032 2.512,0.416 1.104,0.384 1.872,1.184 1.6,1.552 1.6,4.384 v 7.168 q 0,2.864 -1.6,4.416 -1.536,1.584 -4.384,1.632 h -6.272 q -2.832,-0.048 -4.416,-1.632 -1.568,-1.568 -1.568,-4.416 z m 4.096,0.32 v 11.712 l 2.816,-2.816 h 4.96 q 0.56,0 0.976,-0.16 0.432,-0.16 0.72,-0.448 0.576,-0.576 0.576,-1.696 v -6.592 q 0,-1.152 -0.576,-1.728 -0.576,-0.576 -1.696,-0.576 h -5.504 q -1.12,0 -1.696,0.576 -0.576,0.576 -0.576,1.728 z M 182.40008,20.8 h 4.096 V 40 h -4.928 l -7.168,-12.48 V 40 h -4.096 V 20.8 h 4.928 l 7.168,12.448 z"
     id="text12"
     style="font-size:32px;line-height:0.1;font-family:Gayatri;-inkscape-font-specification:Gayatri;fill:#ffffff"
     aria-label="PLAYSTATION" />
</svg>
