<?xml version="1.0" encoding="UTF-8" standalone="no"?>
<svg
   version="1.1"
   id="vertical"
   x="0px"
   y="0px"
   viewBox="0 0 240 40"
   sodipodi:docname="satellaview.svg"
   inkscape:version="1.4-beta (62f545ba5e, 2024-04-22)"
   width="240"
   height="40"
   xmlns:inkscape="http://www.inkscape.org/namespaces/inkscape"
   xmlns:sodipodi="http://sodipodi.sourceforge.net/DTD/sodipodi-0.dtd"
   xmlns="http://www.w3.org/2000/svg"
   xmlns:svg="http://www.w3.org/2000/svg">
  <defs
     id="defs2" />
  <sodipodi:namedview
     id="namedview2"
     pagecolor="#ffffff"
     bordercolor="#000000"
     borderopacity="0.25"
     inkscape:showpageshadow="2"
     inkscape:pageopacity="0.0"
     inkscape:pagecheckerboard="true"
     inkscape:deskcolor="#d1d1d1"
     inkscape:zoom="8.96"
     inkscape:cx="60.825893"
     inkscape:cy="20.033482"
     inkscape:window-width="1920"
     inkscape:window-height="1009"
     inkscape:window-x="-8"
     inkscape:window-y="-8"
     inkscape:window-maximized="1"
     inkscape:current-layer="vertical"
     showgrid="false" />
  <text
     xml:space="preserve"
     style="font-size:32px;line-height:0.1;font-family:Gayatri;-inkscape-font-specification:Gayatri;text-align:start;writing-mode:lr-tb;direction:ltr;text-anchor:start;fill:#ffffff"
     x="9.4866076"
     y="28.571428"
     id="text1"><tspan
       sodipodi:role="line"
       id="tspan1"
       x="9.4866076"
       y="28.571428" /></text>
  <path
     d="M 5.536,32.4 Q 2.768,32.4 1.376,31.248 0,30.112 0,27.792 V 25.376 Q 0,20.8 5.536,20.8 H 15.68 v 4 H 6.112 q -1.024,0 -1.504,0.384 -0.512,0.368 -0.512,1.152 v 0.528 q 0,0.784 0.512,1.152 0.48,0.384 1.504,0.384 h 4.512 q 2.8,0 4.192,1.152 1.376,1.184 1.376,3.424 v 2.448 Q 16.192,40 10.624,40 H 0 l 4,-4 h 6.08 q 1.024,0 1.504,-0.384 0.512,-0.368 0.512,-1.12 v -0.592 q 0,-0.752 -0.512,-1.12 Q 11.104,32.4 10.08,32.4 Z M 31.456017,36 h -8.096 l -1.456,4 h -4.352 l 6.976,-19.2 h 5.728 l 7.008,19.2 h -4.352 l -1.456,-4 z m -4.88,-4 h 3.424 l -2.592,-7.104 -3.6,9.872 2.768,-2.768 z M 41.504028,20.8 h 12.192 v 4 h -6.048 V 40 h -4.096 V 24.8 h -6.048 l 4,-4 z m 20.208017,0 h 10.176 v 4 h -9.888 q -1.248,0 -1.728,0.48 -0.272,0.272 -0.384,0.704 -0.096,0.432 -0.096,1.056 v 4.176 l 2.816,-2.816 h 9.28 v 4 h -12.096 v 1.36 q 0,0.624 0.096,1.056 0.112,0.432 0.384,0.704 0.48,0.48 1.728,0.48 h 9.888 v 4 h -10.176 q -1.648,0 -2.8,-0.336 -1.136,-0.352 -1.84,-1.072 -0.704,-0.704 -1.04,-1.856 -0.336,-1.168 -0.336,-2.784 v -7.136 q 0,-3.264 1.376,-4.64 0.704,-0.704 1.84,-1.056 1.152,-0.352 2.8,-0.32 z m 16.272017,0 v 12.96 q 0,1.232 0.48,1.76 0.528,0.48 1.76,0.48 h 6.208 v 4 h -6.496 q -1.648,0 -2.8,-0.336 -1.136,-0.352 -1.84,-1.072 -0.72,-0.704 -1.072,-1.856 -0.336,-1.168 -0.336,-2.784 V 20.8 Z m 14.544006,0 v 12.96 q 0,1.232 0.48,1.76 0.528,0.48 1.76,0.48 h 6.208002 v 4 h -6.496002 q -1.648,0 -2.8,-0.336 -1.136,-0.352 -1.84,-1.072 -0.72,-0.704 -1.072,-1.856 -0.336,-1.168 -0.336,-2.784 V 20.8 Z M 116.24007,36 h -8.096 l -1.456,4 h -4.352 l 6.976,-19.2 h 5.728 l 7.008,19.2 h -4.352 l -1.456,-4 z m -4.88,-4 h 3.424 l -2.592,-7.104 -3.6,9.872 2.768,-2.768 z m 17.26402,8 -6.976,-19.2 h 4.352 l 5.472,15.104 5.504,-15.104 h 4.352 l -6.976,19.2 h -5.728 z m 12.94403,-19.2 h 4.096 V 40 h -4.096 V 20.8 Z m 12.112,0 h 10.176 v 4 h -9.888 q -1.248,0 -1.728,0.48 -0.272,0.272 -0.384,0.704 -0.096,0.432 -0.096,1.056 v 4.176 l 2.816,-2.816 h 9.28 v 4 h -12.096 v 1.36 q 0,0.624 0.096,1.056 0.112,0.432 0.384,0.704 0.48,0.48 1.728,0.48 h 9.888 v 4 h -10.176 q -1.648,0 -2.8,-0.336 -1.136,-0.352 -1.84,-1.072 -0.704,-0.704 -1.04,-1.856 -0.336,-1.168 -0.336,-2.784 v -7.136 q 0,-3.264 1.376,-4.64 0.704,-0.704 1.84,-1.056 1.152,-0.352 2.8,-0.32 z m 27.85602,0 3.488,12.992 3.456,-12.992 h 4.256 l -5.152,19.2 h -5.152 l -3.456,-12.992 -3.488,12.992 h -5.152 l -5.12,-19.2 h 4.224 l 3.488,12.992 3.456,-12.992 h 5.152 z"
     id="text2"
     style="font-size:32px;line-height:0.1;font-family:Gayatri;-inkscape-font-specification:Gayatri;fill:#ffffff"
     aria-label="SATELLAVIEW" />
</svg>
