<?xml version="1.0" encoding="UTF-8" standalone="no"?>
<svg
   version="1.1"
   id="vertical"
   x="0px"
   y="0px"
   viewBox="0 0 240 40"
   sodipodi:docname="sgb.svg"
   inkscape:version="1.4-beta (62f545ba5e, 2024-04-22)"
   width="240"
   height="40"
   xmlns:inkscape="http://www.inkscape.org/namespaces/inkscape"
   xmlns:sodipodi="http://sodipodi.sourceforge.net/DTD/sodipodi-0.dtd"
   xmlns="http://www.w3.org/2000/svg"
   xmlns:svg="http://www.w3.org/2000/svg">
  <defs
     id="defs2" />
  <sodipodi:namedview
     id="namedview2"
     pagecolor="#ffffff"
     bordercolor="#000000"
     borderopacity="0.25"
     inkscape:showpageshadow="2"
     inkscape:pageopacity="0.0"
     inkscape:pagecheckerboard="true"
     inkscape:deskcolor="#d1d1d1"
     inkscape:zoom="8.96"
     inkscape:cx="63.337054"
     inkscape:cy="20.479911"
     inkscape:window-width="1920"
     inkscape:window-height="1009"
     inkscape:window-x="-8"
     inkscape:window-y="-8"
     inkscape:window-maximized="1"
     inkscape:current-layer="vertical"
     showgrid="false" />
  <text
     xml:space="preserve"
     style="font-size:32px;line-height:0.1;font-family:Gayatri;-inkscape-font-specification:Gayatri;text-align:start;writing-mode:lr-tb;direction:ltr;text-anchor:start;fill:#ffffff"
     x="0"
     y="37.05357"
     id="text18"><tspan
       sodipodi:role="line"
       id="tspan18"
       x="0"
       y="37.05357" /></text>
  <path
     d="m 5.536,11.602667 q -2.768,0 -4.16,-1.152 Q 0,9.3146672 0,6.9946672 v -2.416 Q 0,0.00266724 5.536,0.00266724 H 15.68 V 4.0026672 H 6.112 q -1.024,0 -1.504,0.384 -0.512,0.368 -0.512,1.152 v 0.528 q 0,0.784 0.512,1.152 0.48,0.384 1.504,0.384 h 4.512 q 2.8,0 4.192,1.152 1.376,1.184 1.376,3.4239998 v 2.448 q 0,4.576 -5.568,4.576 H 0 l 4,-4 h 6.08 q 1.024,0 1.504,-0.384 0.512,-0.368 0.512,-1.12 v -0.592 q 0,-0.752 -0.512,-1.12 -0.48,-0.384 -1.504,-0.384 z m 26.800017,1.296 V 0.00266724 h 4.096 V 13.154667 q -0.032,1.456 -0.416,2.56 -0.384,1.088 -1.184,1.856 -1.536,1.584 -4.416,1.632 h -6.24 q -2.832,-0.048 -4.416,-1.632 -1.568,-1.568 -1.568,-4.416 V 0.00266724 h 4.096 V 18.018667 l 2.816,-2.816 h 4.928 q 0.576,0 1.008,-0.16 0.432,-0.16 0.72,-0.448 0.576,-0.576 0.576,-1.696 z M 49.056007,0.00266724 q 2.8,0 4.192,1.15199996 1.376,1.136 1.376,3.424 v 2.416 q 0,2.32 -1.376,3.4559998 -1.392,1.152 -4.192,1.152 h -6.528 v 7.6 h -4.096 V 0.00266724 Z m 1.472,6.06399996 v -0.496 q 0,-0.784 -0.512,-1.152 -0.48,-0.384 -1.504,-0.384 v -0.032 h -5.984 v 6.4159998 l 2.784,-2.8159998 h 3.2 q 1.024,0 1.504,-0.384 0.512,-0.368 0.512,-1.152 z M 62.640023,0.00266724 h 10.176 V 4.0026672 h -9.888 q -1.248,0 -1.728,0.48 -0.272,0.272 -0.384,0.704 -0.096,0.432 -0.096,1.056 v 4.1759998 l 2.816,-2.8159998 h 9.28 v 3.9999998 h -12.096 v 1.36 q 0,0.624 0.096,1.056 0.112,0.432 0.384,0.704 0.48,0.48 1.728,0.48 h 9.888 v 4 h -10.176 q -1.648,0 -2.8,-0.336 -1.136,-0.352 -1.84,-1.072 -0.704,-0.704 -1.04,-1.856 -0.336,-1.168 -0.336,-2.784 V 6.0186672 q 0,-3.264 1.376,-4.64 0.704,-0.70399996 1.84,-1.05599996 1.152,-0.352 2.8,-0.32 z m 22.800017,0 q 2.8,0 4.192,1.15199996 1.376,1.136 1.376,3.424 v 2.208 l -2.816,2.816 h 2.816 v 9.5999998 h -4.096 v -7.6 h -8 v 7.6 h -4.096 V 0.00266724 Z m 1.472,6.06399996 v -0.496 q 0,-0.784 -0.512,-1.152 -0.48,-0.384 -1.504,-0.384 v -0.032 h -5.984 v 6.4159998 l 2.816,-2.8159998 h 3.168 q 1.024,0 1.504,-0.384 0.512,-0.368 0.512,-1.152 z"
     id="text19"
     style="font-size:32px;line-height:0.1;font-family:Gayatri;-inkscape-font-specification:Gayatri;fill:#ffffff"
     aria-label="SUPER" />
  <path
     d="m 12.384024,20.8 h 10.208 v 4 h -9.792 q -1.168,0 -1.728,0.608 -0.576,0.576 -0.576,1.728 v 6.56 q 0,1.12 0.576,1.696 0.288,0.288 0.72,0.448 0.432,0.16 1.008,0.16 h 5.696 v -3.6 h -5.344 l 4,-4 h 5.44 V 40 h -3.904 -6.304 q -2.8479996,-0.048 -4.3839996,-1.632 -0.8,-0.768 -1.184,-1.856 -0.384,-1.104 -0.416,-2.56 v -7.168 q 0.032,-1.424 0.416,-2.512 0.384,-1.104 1.184,-1.872 0.768,-0.8 1.856,-1.184 Q 10.960024,20.832 12.384024,20.8 Z M 37.856041,36 h -8.096 l -1.456,4 h -4.352 l 6.976,-19.2 h 5.728 l 7.008,19.2 h -4.352 l -1.456,-4 z m -4.88,-4 h 3.424 l -2.592,-7.104 -3.6,9.872 2.768,-2.768 z M 60.256053,20.8 h 6.72 V 40 h -4.096 V 25.504 L 57.632053,40 h -4.352 l -5.28,-14.496 V 40 h -4.096 V 20.8 h 6.72 l 4.832,13.216 4.8,-13.216 z m 14.736021,0 h 10.176 v 4 h -9.888 q -1.248,0 -1.728,0.48 -0.272,0.272 -0.384,0.704 -0.096,0.432 -0.096,1.056 v 4.176 l 2.816,-2.816 h 9.28 v 4 h -12.096 v 1.36 q 0,0.624 0.096,1.056 0.112,0.432 0.384,0.704 0.48,0.48 1.728,0.48 h 9.888 v 4 h -10.176 q -1.648,0 -2.8,-0.336 -1.136,-0.352 -1.84,-1.072 -0.704,-0.704 -1.04,-1.856 -0.336,-1.168 -0.336,-2.784 v -7.136 q 0,-3.264 1.376,-4.64 0.704,-0.704 1.84,-1.056 1.152,-0.352 2.8,-0.32 z m 24.272017,11.6 h -8 v 6.416 l 2.816,-2.816 h 3.168 q 0.976,0 1.504,-0.384 0.512,-0.416 0.512,-1.12 z m -12.096,-11.6 h 10.624 q 5.567999,0 5.567999,4.576 v 2.24 l -2.816,2.784 h 2.816 v 5.024 q 0,4.576 -5.567999,4.576 h -10.624 z m 4.096,4 v 6.416 l 2.816,-2.816 h 3.168 q 0.976,0 1.504,-0.384 0.512,-0.416 0.512,-1.12 v -0.56 q 0,-0.736 -0.512,-1.152 -0.528,-0.384 -1.504,-0.384 z m 14.096019,1.984 q 0,-1.424 0.4,-2.512 0.4,-1.104 1.168,-1.872 0.8,-0.8 1.888,-1.184 1.104,-0.384 2.528,-0.416 h 6.272 q 1.424,0.032 2.512,0.416 1.104,0.384 1.872,1.184 1.6,1.552 1.6,4.384 v 7.168 q 0,2.864 -1.6,4.416 -1.536,1.584 -4.384,1.632 h -6.272 q -2.832,-0.048 -4.416,-1.632 -1.568,-1.568 -1.568,-4.416 z m 4.096,0.32 v 11.712 l 2.816,-2.816 h 4.96 q 0.56,0 0.976,-0.16 0.432,-0.16 0.72,-0.448 0.576,-0.576 0.576,-1.696 v -6.592 q 0,-1.152 -0.576,-1.728 -0.576,-0.576 -1.696,-0.576 h -5.504 q -1.12,0 -1.696,0.576 -0.576,0.576 -0.576,1.728 z M 143.3921,20.8 136.2241,31.04 V 40 h -4.096 v -8.96 l -7.168,-10.24 h 4.992 l 4.224,6.016 4.224,-6.016 h 4.992 z"
     id="text20"
     style="font-size:32px;line-height:0.1;font-family:Gayatri;-inkscape-font-specification:Gayatri;fill:#ffffff"
     aria-label=" GAMEBOY" />
</svg>
