<?xml version="1.0" encoding="UTF-8" standalone="no"?>
<svg
   version="1.1"
   id="vertical"
   x="0px"
   y="0px"
   viewBox="0 0 240 40"
   sodipodi:docname="snes.svg"
   inkscape:version="1.4-beta (62f545ba5e, 2024-04-22)"
   width="240"
   height="40"
   xmlns:inkscape="http://www.inkscape.org/namespaces/inkscape"
   xmlns:sodipodi="http://sodipodi.sourceforge.net/DTD/sodipodi-0.dtd"
   xmlns="http://www.w3.org/2000/svg"
   xmlns:svg="http://www.w3.org/2000/svg">
  <defs
     id="defs2" />
  <sodipodi:namedview
     id="namedview2"
     pagecolor="#ffffff"
     bordercolor="#000000"
     borderopacity="0.25"
     inkscape:showpageshadow="2"
     inkscape:pageopacity="0.0"
     inkscape:pagecheckerboard="true"
     inkscape:deskcolor="#d1d1d1"
     inkscape:zoom="8.96"
     inkscape:cx="91.294643"
     inkscape:cy="20.033482"
     inkscape:window-width="1920"
     inkscape:window-height="1009"
     inkscape:window-x="-8"
     inkscape:window-y="-8"
     inkscape:window-maximized="1"
     inkscape:current-layer="vertical" />
  <path
     d="m 5.6009093,32.31089 q -2.8004546,0 -4.2087758,-1.165507 Q 0,29.996064 0,27.648862 V 25.204534 Q 0,20.574881 5.6009093,20.574881 H 15.863847 v 4.0469 H 6.1836629 q -1.0360064,0 -1.5216343,0.388502 -0.5180032,0.372315 -0.5180032,1.165507 v 0.534191 q 0,0.793192 0.5180032,1.165507 0.4856279,0.388503 1.5216343,0.388503 h 4.5649031 q 2.83283,0 4.241151,1.165507 1.392133,1.197882 1.392133,3.464146 v 2.476703 Q 16.38185,40 10.748566,40 H 0 l 4.0468998,-4.0469 h 6.1512872 q 1.036007,0 1.521635,-0.388502 0.518003,-0.372315 0.518003,-1.133132 v -0.598941 q 0,-0.760817 -0.518003,-1.133132 Q 11.234194,32.31089 10.198187,32.31089 Z M 32.715155,33.622086 V 20.574881 h 4.144025 v 13.306207 q -0.03238,1.473071 -0.420877,2.590015 Q 36.0498,37.57186 35.24042,38.348865 33.686411,39.951437 30.772643,40 H 24.459479 Q 21.594274,39.951437 19.991702,38.348865 18.405317,36.76248 18.405317,33.881088 V 20.574881 h 4.144026 V 38.802118 L 25.39836,35.9531 h 4.985781 q 0.582753,0 1.019818,-0.161876 0.437066,-0.161876 0.728442,-0.453253 0.582754,-0.582753 0.582754,-1.715885 z M 49.631188,20.574881 q 2.832829,0 4.241151,1.165507 1.392133,1.14932 1.392133,3.464146 v 2.444328 q 0,2.347202 -1.392133,3.496521 -1.408322,1.165507 -4.241151,1.165507 H 43.026647 V 40 H 38.882622 V 20.574881 Z m 1.489259,6.1351 v -0.501816 q 0,-0.793192 -0.518003,-1.165507 -0.485628,-0.388502 -1.521635,-0.388502 v -0.03238 h -6.054162 v 6.491227 l 2.816642,-2.849017 h 3.23752 q 1.036007,0 1.521635,-0.388503 0.518003,-0.372315 0.518003,-1.165507 z m 12.254027,-6.1351 h 10.295314 v 4.0469 H 63.665851 q -1.262632,0 -1.74826,0.485628 -0.27519,0.275189 -0.388503,0.712254 -0.09712,0.437065 -0.09712,1.068382 v 4.224963 l 2.849017,-2.849017 h 9.388808 V 32.31089 H 61.431963 v 1.375946 q 0,0.631317 0.09712,1.068382 0.113313,0.437065 0.388503,0.712254 0.485628,0.485628 1.74826,0.485628 H 73.669788 V 40 H 63.374474 q -1.667322,0 -2.832829,-0.33994 -1.14932,-0.356127 -1.861574,-1.084569 -0.712255,-0.712254 -1.052194,-1.877761 -0.33994,-1.181695 -0.33994,-2.816642 v -7.21967 q 0,-3.30227 1.392134,-4.694403 0.712254,-0.712255 1.861574,-1.068382 1.165507,-0.356127 2.832829,-0.323752 z m 23.067344,0 q 2.83283,0 4.241151,1.165507 1.392134,1.14932 1.392134,3.464146 v 2.233889 l -2.849018,2.849017 h 2.849018 V 40 h -4.144025 v -7.68911 h -8.0938 V 40 H 75.693253 V 20.574881 Z m 1.48926,6.1351 v -0.501816 q 0,-0.793192 -0.518004,-1.165507 -0.485628,-0.388502 -1.521634,-0.388502 v -0.03238 h -6.054162 v 6.491227 l 2.849017,-2.849017 h 3.205145 q 1.036006,0 1.521634,-0.388503 0.518004,-0.372315 0.518004,-1.165507 z m 31.355442,-6.1351 h 4.14403 V 40 h -4.98578 L 111.19272,27.373673 V 40 H 107.0487 V 20.574881 h 4.98578 l 7.25204,12.593952 V 20.574881 Z m 6.1675,15.378219 h 4.14402 V 40 h -4.14402 v -4.0469 z m 12.25402,-15.378219 h 10.29532 v 4.0469 h -10.00394 q -1.26263,0 -1.74826,0.485628 -0.27519,0.275189 -0.3885,0.712254 -0.0971,0.437065 -0.0971,1.068382 v 4.224963 l 2.84902,-2.849017 h 9.38881 v 4.046899 h -12.23783 v 1.375946 q 0,0.631317 0.0971,1.068382 0.11331,0.437065 0.3885,0.712254 0.48563,0.485628 1.74826,0.485628 h 10.00394 V 40 h -10.29532 q -1.66732,0 -2.83283,-0.33994 -1.14932,-0.356127 -1.86157,-1.084569 -0.71226,-0.712254 -1.05219,-1.877761 -0.33994,-1.181695 -0.33994,-2.816642 v -7.21967 q 0,-3.30227 1.39213,-4.694403 0.71225,-0.712255 1.86157,-1.068382 1.16551,-0.356127 2.83283,-0.323752 z M 150.02682,35.9531 h 4.14403 V 40 h -4.14403 v -4.0469 z m 11.76839,-3.64221 q -2.80045,0 -4.20877,-1.165507 -1.39213,-1.149319 -1.39213,-3.496521 v -2.444328 q 0,-4.629653 5.6009,-4.629653 h 10.26294 v 4.0469 h -9.68018 q -1.03601,0 -1.52164,0.388502 -0.518,0.372315 -0.518,1.165507 v 0.534191 q 0,0.793192 0.518,1.165507 0.48563,0.388503 1.52164,0.388503 h 4.5649 q 2.83283,0 4.24115,1.165507 1.39214,1.197882 1.39214,3.464146 v 2.476703 Q 172.57616,40 166.94287,40 h -10.74856 l 4.0469,-4.0469 h 6.15128 q 1.03601,0 1.52164,-0.388502 0.518,-0.372315 0.518,-1.133132 v -0.598941 q 0,-0.760817 -0.518,-1.133132 -0.48563,-0.388503 -1.52164,-0.388503 z m 12.80441,3.64221 h 4.14403 V 40 h -4.14403 v -4.0469 z"
     id="text38"
     style="font-size:32.3752px;line-height:0.1;font-family:Gayatri;-inkscape-font-specification:Gayatri;fill:#ffffff;stroke-width:1.01172"
     aria-label="SUPER  N.E.S." />
</svg>
