<?xml version="1.0" encoding="UTF-8" standalone="no"?>
<svg
   version="1.1"
   id="vertical"
   x="0px"
   y="0px"
   viewBox="0 0 240 40"
   sodipodi:docname="x68000.svg"
   inkscape:version="1.4-beta (62f545ba5e, 2024-04-22)"
   width="240"
   height="40"
   xmlns:inkscape="http://www.inkscape.org/namespaces/inkscape"
   xmlns:sodipodi="http://sodipodi.sourceforge.net/DTD/sodipodi-0.dtd"
   xmlns="http://www.w3.org/2000/svg"
   xmlns:svg="http://www.w3.org/2000/svg">
  <defs
     id="defs2" />
  <sodipodi:namedview
     id="namedview2"
     pagecolor="#ffffff"
     bordercolor="#000000"
     borderopacity="0.25"
     inkscape:showpageshadow="2"
     inkscape:pageopacity="0.0"
     inkscape:pagecheckerboard="true"
     inkscape:deskcolor="#d1d1d1"
     inkscape:zoom="8.96"
     inkscape:cx="69.363839"
     inkscape:cy="20.479911"
     inkscape:window-width="1920"
     inkscape:window-height="1009"
     inkscape:window-x="-8"
     inkscape:window-y="-8"
     inkscape:window-maximized="1"
     inkscape:current-layer="vertical"
     showgrid="false" />
  <path
     d="M 5.536,32.4 Q 2.768,32.4 1.376,31.248 0,30.112 0,27.792 V 25.376 Q 0,20.8 5.536,20.8 H 15.68 v 4 H 6.112 q -1.024,0 -1.504,0.384 -0.512,0.368 -0.512,1.152 v 0.528 q 0,0.784 0.512,1.152 0.48,0.384 1.504,0.384 h 4.512 q 2.8,0 4.192,1.152 1.376,1.184 1.376,3.424 v 2.448 Q 16.192,40 10.624,40 H 0 l 4,-4 h 6.08 q 1.024,0 1.504,-0.384 0.512,-0.368 0.512,-1.12 v -0.592 q 0,-0.752 -0.512,-1.12 Q 11.104,32.4 10.08,32.4 Z M 18.192017,20.8 h 4.096 v 10.416 l 2.816,-2.816 h 5.184 v -7.6 h 4.096 V 40 h -4.096 v -7.6 h -8 V 40 h -4.096 V 20.8 Z M 49.648033,36 h -8.096 l -1.456,4 h -4.352 l 6.976,-19.2 h 5.728 l 7.008,19.2 h -4.352 l -1.456,-4 z m -4.88,-4 h 3.424 l -2.592,-7.104 -3.6,9.872 2.768,-2.768 z M 66.320045,20.8 q 2.8,0 4.192,1.152 1.376,1.136 1.376,3.424 v 2.208 l -2.816,2.816 h 2.816 V 40 h -4.096 v -7.6 h -8 V 40 h -4.096 V 20.8 Z m 1.472,6.064 v -0.496 q 0,-0.784 -0.512,-1.152 -0.48,-0.384 -1.504,-0.384 V 24.8 h -5.984 v 6.416 l 2.816,-2.816 h 3.168 q 1.024,0 1.504,-0.384 0.512,-0.368 0.512,-1.152 z M 84.512062,20.8 q 2.8,0 4.192,1.152 1.376,1.136 1.376,3.424 v 2.416 q 0,2.32 -1.376,3.456 -1.392,1.152 -4.192,1.152 h -6.528 V 40 h -4.096 V 20.8 Z m 1.472,6.064 v -0.496 q 0,-0.784 -0.512,-1.152 -0.48,-0.384 -1.504,-0.384 V 24.8 h -5.984 v 6.416 l 2.784,-2.816 h 3.2 q 1.024,0 1.504,-0.384 0.512,-0.368 0.512,-1.152 z m 23.248068,-6.064 4.224,6.016 4.224,-6.016 h 4.992 l -6.72,9.6 6.72,9.6 h -4.992 l -4.224,-6.048 -4.224,6.048 h -4.992 l 6.72,-9.6 -6.72,-9.6 h 4.992 z M 128.48011,40 q -5.568,0 -5.568,-4.544 v -10.08 q 0,-2.256 1.408,-3.424 1.392,-1.152 4.16,-1.152 h 10.624 l -4,4 h -6.08 q -0.976,0 -1.504,0.384 -0.24,0.192 -0.384,0.48 -0.128,0.288 -0.128,0.672 V 28.4 h 6.528 q 2.768,0 4.16,1.152 0.704,0.576 1.056,1.424 0.352,0.848 0.352,2 v 2.48 q 0,4.544 -5.568,4.544 z m -1.472,-7.6 v 2.096 q 0,0.368 0.128,0.656 0.144,0.272 0.384,0.464 0.528,0.384 1.504,0.384 h 4 q 0.976,0 1.504,-0.384 0.512,-0.416 0.512,-1.12 v -0.592 q 0,-0.704 -0.512,-1.12 -0.528,-0.384 -1.504,-0.384 z m 24.65602,0 h -4.96 q -0.624,0.048 -1.024,0.352 -0.464,0.368 -0.512,1.12 v 4.944 l 2.848,-2.816 h 3.168 q 1.024,0 1.504,-0.384 0.512,-0.368 0.512,-1.12 v -0.624 q 0,-0.752 -0.512,-1.12 -0.192,-0.144 -0.448,-0.224 -0.24,-0.096 -0.576,-0.128 z m 0.064,-11.6 q 5.568,0 5.568,4.544 v 2.24 l -2.816,2.816 h 2.816 v 5.024 q 0,1.152 -0.352,2 -0.352,0.848 -1.024,1.424 -1.392,1.152 -4.192,1.152 h -5.088 q -2.768,0 -4.16,-1.152 -1.376,-1.136 -1.376,-3.424 v -2.208 l 2.816,-2.816 h -2.816 v -5.056 q 0,-4.544 5.536,-4.544 z m -0.544,7.6 q 1.024,0 1.504,-0.384 0.512,-0.368 0.512,-1.152 v -0.528 q 0,-0.784 -0.512,-1.152 -0.48,-0.384 -1.504,-0.384 h -3.968 q -1.008,0 -1.536,0.384 -0.464,0.368 -0.512,1.152 v 0.528 q 0.048,0.784 0.512,1.152 0.528,0.384 1.536,0.384 z m 8.11201,-1.616 q 0.032,-1.424 0.416,-2.512 0.384,-1.104 1.184,-1.872 0.8,-0.8 1.872,-1.2 1.088,-0.4 2.544,-0.4 h 6.208 q 2.816,0 4.416,1.6 1.552,1.552 1.6,4.384 v 7.232 q -0.048,2.816 -1.6,4.416 -0.8,0.768 -1.904,1.168 -1.088,0.4 -2.512,0.4 h -6.208 q -1.456,0 -2.544,-0.4 -1.072,-0.4 -1.872,-1.168 -0.8,-0.8 -1.184,-1.888 -0.384,-1.104 -0.416,-2.528 z m 4.096,0.32 v 6.624 q 0,1.12 0.576,1.696 0.576,0.576 1.728,0.576 h 5.44 q 1.152,0 1.728,-0.576 0.576,-0.576 0.576,-1.696 v -6.624 q 0,-1.152 -0.576,-1.728 -0.576,-0.576 -1.728,-0.576 h -5.44 q -1.152,0 -1.728,0.576 -0.576,0.576 -0.576,1.728 z m 16.14399,-0.32 q 0.032,-1.424 0.416,-2.512 0.384,-1.104 1.184,-1.872 0.8,-0.8 1.872,-1.2 1.088,-0.4 2.544,-0.4 h 6.208 q 2.816,0 4.416,1.6 1.552,1.552 1.6,4.384 v 7.232 q -0.048,2.816 -1.6,4.416 -0.8,0.768 -1.904,1.168 -1.088,0.4 -2.512,0.4 h -6.208 q -1.456,0 -2.544,-0.4 -1.072,-0.4 -1.872,-1.168 -0.8,-0.8 -1.184,-1.888 -0.384,-1.104 -0.416,-2.528 z m 4.096,0.32 v 6.624 q 0,1.12 0.576,1.696 0.576,0.576 1.728,0.576 h 5.44 q 1.152,0 1.728,-0.576 0.576,-0.576 0.576,-1.696 v -6.624 q 0,-1.152 -0.576,-1.728 -0.576,-0.576 -1.728,-0.576 h -5.44 q -1.152,0 -1.728,0.576 -0.576,0.576 -0.576,1.728 z m 16.14399,-0.32 q 0.032,-1.424 0.416,-2.512 0.384,-1.104 1.184,-1.872 0.8,-0.8 1.872,-1.2 1.088,-0.4 2.544,-0.4 h 6.208 q 2.816,0 4.416,1.6 1.552,1.552 1.6,4.384 v 7.232 q -0.048,2.816 -1.6,4.416 -0.8,0.768 -1.904,1.168 -1.088,0.4 -2.512,0.4 h -6.208 q -1.456,0 -2.544,-0.4 -1.072,-0.4 -1.872,-1.168 -0.8,-0.8 -1.184,-1.888 -0.384,-1.104 -0.416,-2.528 z m 4.096,0.32 v 6.624 q 0,1.12 0.576,1.696 0.576,0.576 1.728,0.576 h 5.44 q 1.152,0 1.728,-0.576 0.576,-0.576 0.576,-1.696 v -6.624 q 0,-1.152 -0.576,-1.728 -0.576,-0.576 -1.728,-0.576 h -5.44 q -1.152,0 -1.728,0.576 -0.576,0.576 -0.576,1.728 z"
     id="text12"
     style="font-size:32px;line-height:0.1;font-family:Gayatri;-inkscape-font-specification:Gayatri;fill:#ffffff"
     aria-label="SHARP  X68000" />
</svg>
